<?xml version="1.0" encoding="utf-8"?>
<!-- Generator: Adobe Illustrator 25.0.0, SVG Export Plug-In . SVG Version: 6.00 Build 0)  -->
<svg version="1.1" id="Camada_1" xmlns="http://www.w3.org/2000/svg" xmlns:xlink="http://www.w3.org/1999/xlink" x="0px" y="0px"
	 viewBox="0 0 1280 1024" style="enable-background:new 0 0 1280 1024;" xml:space="preserve">
<style type="text/css">
	.st0{fill:#FFFFFF;}
</style>
<g>
	<path class="st0" d="M778.1,538.92c-0.3-2.08-0.22-4.21,0.3-6.26c0.36-1.39,0.9-2.76,1.79-3.88c4.81-6.08,14.05-2.27,17.05,3.4
		c2.74,5.17,4.25,10.98,4.38,16.83c0.04,1.63-0.1,3.43-1.24,4.6c-1.93,1.99-6.44,2.11-8.85,1.22c-3.56-1.31-6.85-3.99-9.31-6.85
		C780.04,545.44,778.58,542.24,778.1,538.92z"/>
	<path class="st0" d="M496.62,536.68c0.23,4.54,0.03,8.68-2.04,12.85c-1.87,3.76-4.82,7.01-8.5,9.07c-2.19,1.24-4.38,1.26-6.83,0.94
		c-1.15-0.15-2.31-0.42-3.25-1.1c-1.57-1.12-2.25-3.21-2.05-5.12c0.2-1.92,1.15-3.68,2.3-5.23c1.15-1.55,2.5-2.93,3.68-4.46
		c2.84-3.71,4.54-8.28,4.81-12.95c0.12-2.09-0.02-4.25,0.66-6.23c0.66-1.91,2.95-4.33,5.18-3.41c1.38,0.56,2.31,2.47,2.92,3.71
		c1.43,2.93,2.4,6.28,2.88,9.51C496.5,535.05,496.58,535.86,496.62,536.68z"/>
	<path class="st0" d="M690.66,457.91c-4.54-0.26-8.63-0.91-12.55-3.42c-3.54-2.27-6.44-5.55-8.1-9.43c-0.99-2.32-0.78-4.49-0.2-6.89
		c0.27-1.12,0.67-2.25,1.44-3.12c1.28-1.44,3.43-1.89,5.32-1.48c1.89,0.4,3.54,1.54,4.95,2.85c1.42,1.31,2.64,2.81,4.04,4.14
		c3.38,3.23,7.74,5.41,12.35,6.19c2.07,0.35,4.23,0.44,6.12,1.33c1.83,0.87,3.98,3.4,2.83,5.52c-0.71,1.31-2.7,2.03-4,2.5
		c-3.07,1.1-6.5,1.7-9.76,1.83C692.29,457.97,691.47,457.96,690.66,457.91z"/>
	<g>
		<path class="st0" d="M803.17,602.63c3.81-14.38,0.12-31.26-11.36-40.25c-3.93-3.08-8.54-5.3-12.11-8.79
			c-8.81-8.61-9.23-23.03-4.92-34.57c2.4-6.43,6.04-12.38,8.02-18.95c5.82-19.33-9.72-39.39-26.86-46.59
			c-15.56-6.54-33.86-4.97-49.1,2.29c-7.16,3.41-14.35,8.14-22.25,7.47c-14.71-1.23-16.15-15.89-23.54-25.17
			c-1.66-2.08-3.52-4-5.53-5.72c-8.21-7.02-19.07-10.96-29.88-10.57c-13.47,0.48-26.54,7.67-34.15,18.8
			c-4.75,6.94-7.5,15.28-13.3,21.37c-6.79,7.12-17.52,10.2-27.05,7.77c-8.73-2.22-16.19-8.61-25.15-9.54
			c-5.82-0.6-11.72,1.24-16.64,4.39c-10.04,6.43-16.12,18.56-15.28,30.45c0.98,13.85,10.49,26.3,10.12,40.18
			c-0.33,12.5-8.5,23.17-14.39,34.2c-5.58,10.44-6.48,22.23-3.66,33.23H803.17z"/>
	</g>
</g>
</svg>
