<?xml version="1.0" encoding="utf-8"?>
<!-- Generator: Adobe Illustrator 25.0.0, SVG Export Plug-In . SVG Version: 6.00 Build 0)  -->
<svg version="1.1" id="Camada_1" xmlns="http://www.w3.org/2000/svg" xmlns:xlink="http://www.w3.org/1999/xlink" x="0px" y="0px"
	 viewBox="0 0 288 560" style="enable-background:new 0 0 288 560;" xml:space="preserve">
<style type="text/css">
	.st0{fill:#F19C6E;}
	.st1{fill:#333333;}
	.st2{fill:#241E31;}
	.st3{fill:#5C0020;}
	.st4{fill:#7F0020;}
	.st5{fill:#808080;}
	.st6{fill:#181843;}
	.st7{fill:#FFFFFF;}
	.st8{fill:#E57555;}
	.st9{fill:#79B5EE;}
	.st10{fill:#4E97DE;}
	.st11{fill:#B0684B;}
	.st12{fill:#E2EDFB;}
	.st13{fill:#CA6338;}
	.st14{fill:#4D4D4D;}
	.st15{fill:#2A0921;}
	.st16{fill:#1A1A1A;}
	.st17{fill:#666666;}
</style>
<g>
	<path class="st0" d="M30.99,220.24c0,0-6.05,11.06-3.78,16c2.27,4.94,7.82,11.59,7.82,11.59l9.91-33.41l-9.66-1.52L30.99,220.24z"
		/>
</g>
<g>
	<path class="st1" d="M33.27,288.75c-0.02,0-0.03,0-0.05,0c-0.41-0.03-0.71-0.38-0.68-0.78c0.19-2.95,2.09-5.71,4.71-7.06
		c-2.61-1.13-5.92-0.74-8.09,1.09c-0.31,0.26-0.77,0.22-1.04-0.09c-0.26-0.31-0.22-0.77,0.09-1.04c3.08-2.6,7.88-2.79,11.16-0.45
		c0.23,0.16,0.35,0.45,0.3,0.72c-0.05,0.28-0.25,0.5-0.53,0.58c-2.79,0.78-4.95,3.45-5.13,6.33
		C33.98,288.45,33.66,288.75,33.27,288.75z"/>
</g>
<g>
	<g>
		<path class="st2" d="M147.48,305.11c3.12,12.04,4.62,74.15,4.62,74.15H65.62c0,0-6.71-55.23,3.79-71.55L147.48,305.11z"/>
	</g>
	<g>
		<g>
			<path class="st3" d="M55.82,213.74c0,0-3.04,4.26-5.04,4.28S38.11,202.9,37.5,201.58c-0.61-1.32,4.16-4.39,4.16-4.39
				L55.82,213.74z"/>
		</g>
		<g>
			<path class="st4" d="M214.8,177.42c-50.88-14.21-113.09-12.09-139.35-3.52c-26.27,8.56-35.22,17.37-33.79,23.3l8.24,14.96
				c0,0,93.2-12.17,130.1-1.93L214.8,177.42z"/>
		</g>
		<g>
			<path class="st5" d="M139.67,188.5c14.01,6.34,38.86,24.86,38.86,24.86l-9,33.1l-23.64-11.6l-9.29-42.92L139.67,188.5z"/>
		</g>
		<g>
			<polygon class="st2" points="70.36,299.47 69.92,309.73 152.17,307.13 151.45,297.99 			"/>
		</g>
		<g>
			<path class="st5" d="M151.2,289.03l-5.31-54.16l-6.22-46.37c-12.42-5.61-20.39-9.17-44.82-8.68c0,0-19.02,3.55-32.24,13.93
				c0,0,2.52,18.14,2.01,39.49c-0.68,28.89-3.55,63.55,5.73,66.23l81.09-1.48C151.45,297.99,151.21,293.96,151.2,289.03z"/>
		</g>
		<g>
			<path class="st2" d="M64.19,247.35c-0.31,9.14-0.61,18.26-0.49,26.26l6.06-34.91L64.19,247.35z"/>
		</g>
		<g>
			<path class="st6" d="M130.29,118.67c0,0,7.03-5.1,12.04-1.76c5.01,3.34-3.92,29.89-3.92,29.89h-2.52L130.29,118.67z"/>
		</g>
		<g>
			<g>
				<path class="st0" d="M133.16,146.92c0,0,11.87-5.67,12.42,4.81c0.6,11.52-14.36,6.1-14.36,6.1L133.16,146.92z"/>
			</g>
		</g>
		<g>
			<path class="st7" d="M94.65,177.28c-7.81,0.44-7.22,6.53-7.3,9.7c-0.14,5.45,3.73,18.66,8.75,17.56c5.02-1.1,10.93-8.5,10.93-8.5
				s7.84,9.31,12.35,7.07c4.5-2.24,2.29-21.79-6.12-24.5C104.84,175.92,94.65,177.28,94.65,177.28z"/>
		</g>
		<g>
			<g>
				<path class="st0" d="M92.96,183.31l-1.33-31.04c0,0-12.44,2.47-12.06-7.36c0.34-8.76,9.84-8.15,13.82-3.47
					c0,0-4.04-31.31,22.42-30.17s21.87,36.98,20.79,45.66c-1.89,15.29-13.84,21.13-21.86,20.81l-0.66,9.44c0,0-0.48,8.28-8.22,7.54
					C95.55,193.74,92.96,183.31,92.96,183.31z"/>
			</g>
		</g>
		<g>
			<path class="st6" d="M92.25,140.33c0,0,3.95,2.42,3.6,9.7l2.24,0.55l0.93-14.27c0,0,6.03-2.54,7.43-12.15l-22.26-3.39
				c0,0,0.45,9.83,3.1,17.4C87.28,138.16,90.12,138.63,92.25,140.33z"/>
		</g>
		<g>
			<g>
				<path class="st6" d="M109.22,142.45c-0.42,1.51,0.45,3.07,1.96,3.5c1.51,0.42,3.07-0.45,3.5-1.96c0.42-1.51-0.45-3.07-1.96-3.5
					C111.21,140.07,109.64,140.94,109.22,142.45z"/>
			</g>
		</g>
		<g>
			<g>
				<path class="st6" d="M123.24,143.94c-0.42,1.51,0.45,3.07,1.96,3.5c1.51,0.42,3.07-0.45,3.5-1.96c0.42-1.51-0.45-3.07-1.96-3.5
					C125.23,141.56,123.67,142.44,123.24,143.94z"/>
			</g>
		</g>
		<g>
			<path class="st6" d="M121.38,153.61c-0.71,0-1.35-0.3-1.46-0.36c-0.36-0.18-0.51-0.62-0.33-0.99c0.18-0.36,0.62-0.51,0.98-0.33
				c0.33,0.16,0.91,0.29,1.07,0.13c0.03-0.03,0.81-0.9-1.74-6.14c-0.18-0.37-0.03-0.8,0.34-0.98c0.36-0.18,0.8-0.03,0.98,0.34
				c2.1,4.33,2.55,6.74,1.46,7.83C122.3,153.49,121.83,153.61,121.38,153.61z"/>
		</g>
		<g>
			<path class="st6" d="M119.73,158.66c-0.05,0-0.09-0.01-0.14-0.01c-2.49-0.48-4.8-1.92-6.33-3.94c-0.25-0.32-0.18-0.79,0.14-1.03
				c0.32-0.25,0.79-0.18,1.03,0.14c1.32,1.74,3.3,2.97,5.43,3.38c0.4,0.08,0.66,0.46,0.58,0.86
				C120.38,158.41,120.07,158.66,119.73,158.66z"/>
		</g>
		<g>
			<path class="st6" d="M90.37,148.01c-0.01,0-0.03,0-0.04,0c-0.41-0.02-0.72-0.37-0.7-0.77c0.06-1.3-0.53-2.61-1.56-3.42
				c-1.03-0.8-2.44-1.07-3.69-0.7c-0.39,0.12-0.8-0.11-0.91-0.49c-0.11-0.39,0.11-0.8,0.49-0.91c1.7-0.51,3.62-0.14,5.02,0.96
				s2.21,2.88,2.12,4.65C91.09,147.71,90.77,148.01,90.37,148.01z"/>
		</g>
		<g>
			<path class="st6" d="M86.96,146.63c-0.19,0-0.38-0.07-0.52-0.22c-0.29-0.29-0.29-0.75,0-1.04l1.97-1.97
				c0.29-0.29,0.75-0.29,1.04,0c0.29,0.29,0.29,0.75,0,1.04l-1.97,1.97C87.33,146.55,87.14,146.63,86.96,146.63z"/>
		</g>
		<g>
			<path class="st6" d="M117.31,136.91c-0.15,0-0.3-0.05-0.44-0.15c-2.11-1.57-5.33-2.61-8.02-0.84c-0.34,0.22-0.79,0.13-1.02-0.21
				s-0.13-0.8,0.21-1.02c3.32-2.19,7.19-0.97,9.7,0.89c0.33,0.24,0.39,0.7,0.15,1.03C117.76,136.81,117.54,136.91,117.31,136.91z"/>
		</g>
		<g>
			<path class="st6" d="M131.92,138.24c-0.21,0-0.42-0.09-0.57-0.27c-1.72-2.09-5.15-2.51-7.34-0.91c-0.33,0.24-0.79,0.17-1.03-0.16
				c-0.24-0.33-0.17-0.79,0.16-1.03c2.78-2.04,7.14-1.5,9.34,1.16c0.26,0.31,0.22,0.78-0.1,1.03
				C132.25,138.18,132.08,138.24,131.92,138.24z"/>
		</g>
		<g>
			<path class="st6" d="M114.74,177.75c-7.55-0.65-14.4-7.27-14.4-7.27s4.85,9.44,14.08,11.95L114.74,177.75z"/>
		</g>
		<g>
			<path class="st8" d="M110.48,152.02c-0.95,2.05-3.37,2.93-5.42,1.99c-2.05-0.95-2.93-3.37-1.99-5.42
				c0.95-2.05,3.37-2.93,5.42-1.99C110.54,147.55,111.43,149.98,110.48,152.02z"/>
		</g>
		<g>
			<path class="st8" d="M134.5,156.47c-0.95,2.05-3.37,2.93-5.42,1.99c-2.05-0.95-2.93-3.37-1.99-5.42
				c0.95-2.05,3.37-2.93,5.42-1.99C134.56,152.01,135.44,154.43,134.5,156.47z"/>
		</g>
		<g>
			<g>
				<g>
					<path class="st7" d="M102.12,152.55l-8.74-11.11l-1.14-1.12c0,0,4.36,2.7,12.04,12.68L102.12,152.55z"/>
				</g>
				<g>
					<polygon class="st7" points="91.63,152.27 97.5,161.97 96.35,162.79 90.85,152.39 					"/>
				</g>
				<g>
					<path class="st9" d="M136.6,156.94c0,0-11.11-4.77-14.03-5.25c-2.55-0.42-17.14,0.58-20.45,0.87
						c-2.09,3.26-5.78,10.24-5.78,10.24c2.16,6.43,7.55,14.27,18.57,15.1C134.86,179.39,136.6,156.94,136.6,156.94z"/>
				</g>
				<g>
					<g>
						<g>
							<g>
								<path class="st10" d="M108.42,157.97c-0.18-0.05-0.32-0.19-0.36-0.39c-0.05-0.27,0.12-0.54,0.39-0.59l0.5-0.1
									c0.27-0.05,0.53,0.13,0.58,0.41c0.05,0.27-0.13,0.53-0.41,0.58l-0.48,0.09C108.57,157.99,108.49,157.99,108.42,157.97z"/>
							</g>
						</g>
						<g>
							<g>
								<path class="st10" d="M112,157.47c-0.2-0.05-0.35-0.22-0.37-0.44c-0.03-0.28,0.18-0.52,0.46-0.55
									c0.35-0.03,0.7-0.06,1.05-0.08c0.27-0.01,0.51,0.2,0.53,0.47c0.02,0.28-0.2,0.51-0.47,0.53c-0.34,0.02-0.68,0.04-1.02,0.08
									C112.11,157.49,112.05,157.48,112,157.47z M116.14,157.34c-0.22-0.06-0.37-0.26-0.37-0.5c0.01-0.28,0.24-0.49,0.51-0.49
									c0.35,0.01,0.7,0.02,1.05,0.04c0.28,0.01,0.49,0.25,0.47,0.53c-0.01,0.28-0.25,0.49-0.53,0.48
									c-0.34-0.02-0.68-0.03-1.02-0.04C116.21,157.35,116.18,157.34,116.14,157.34z M120.27,157.67c-0.24-0.06-0.4-0.3-0.36-0.55
									c0.04-0.27,0.29-0.47,0.56-0.43c0.35,0.05,0.69,0.1,1.04,0.16c0.28,0.04,0.46,0.3,0.41,0.58c-0.04,0.27-0.3,0.46-0.58,0.41
									c-0.34-0.06-0.67-0.11-1.01-0.15C120.31,157.69,120.29,157.68,120.27,157.67z M129.25,160.1c-0.02-0.01-0.04-0.01-0.06-0.02
									c-0.32-0.13-0.63-0.26-0.95-0.38c-0.26-0.1-0.39-0.39-0.29-0.65c0.1-0.26,0.38-0.39,0.65-0.29
									c0.33,0.13,0.65,0.25,0.98,0.39c0.26,0.11,0.38,0.4,0.27,0.66C129.75,160.05,129.49,160.17,129.25,160.1z M124.33,158.47
									c-0.26-0.07-0.42-0.34-0.35-0.61c0.07-0.27,0.34-0.43,0.61-0.36l0.58,0.15l0.43,0.12c0.27,0.08,0.42,0.35,0.35,0.62
									s-0.35,0.42-0.61,0.35h0l-0.42-0.12L124.33,158.47C124.34,158.47,124.33,158.47,124.33,158.47z"/>
							</g>
						</g>
						<g>
							<g>
								<path class="st10" d="M132.52,161.65c-0.04-0.01-0.07-0.03-0.11-0.04l-0.44-0.23c-0.25-0.13-0.34-0.43-0.21-0.68
									c0.13-0.25,0.43-0.34,0.68-0.21l0.45,0.24c0.24,0.13,0.34,0.44,0.2,0.68C132.98,161.62,132.74,161.71,132.52,161.65z"/>
							</g>
						</g>
					</g>
					<g>
						<g>
							<g>
								<path class="st10" d="M108.32,162.28c-0.2-0.06-0.36-0.24-0.37-0.46c-0.01-0.28,0.2-0.51,0.48-0.53l0.51-0.02
									c0.28-0.01,0.51,0.2,0.52,0.48c0.01,0.28-0.21,0.51-0.48,0.52l-0.5,0.02C108.42,162.3,108.37,162.29,108.32,162.28z"/>
							</g>
						</g>
						<g>
							<g>
								<path class="st10" d="M111.67,162.23c-0.22-0.06-0.37-0.26-0.37-0.49c0-0.28,0.23-0.5,0.51-0.49c0.32,0,0.64,0.01,0.96,0.02
									c0.28,0.01,0.49,0.24,0.49,0.52c-0.01,0.28-0.24,0.49-0.52,0.49c-0.31-0.01-0.63-0.02-0.94-0.02
									C111.75,162.25,111.71,162.24,111.67,162.23z M115.47,162.41c-0.23-0.06-0.39-0.28-0.37-0.53c0.02-0.28,0.27-0.48,0.54-0.46
									c0.32,0.03,0.64,0.05,0.95,0.09c0.28,0.02,0.48,0.27,0.45,0.55c-0.03,0.28-0.27,0.48-0.55,0.45
									c-0.31-0.03-0.63-0.06-0.94-0.08C115.52,162.42,115.49,162.42,115.47,162.41z M119.24,162.84c-0.24-0.07-0.4-0.3-0.36-0.56
									c0.04-0.27,0.3-0.46,0.57-0.42c0.32,0.05,0.63,0.1,0.95,0.15c0.27,0.04,0.46,0.3,0.41,0.58c-0.04,0.27-0.3,0.46-0.58,0.41
									c-0.31-0.05-0.62-0.1-0.93-0.14C119.28,162.85,119.26,162.84,119.24,162.84z M122.98,163.52c-0.25-0.07-0.41-0.33-0.36-0.59
									c0.06-0.27,0.33-0.44,0.6-0.39c0.31,0.07,0.62,0.14,0.93,0.21c0.27,0.02,0.44,0.33,0.38,0.6c-0.06,0.27-0.33,0.44-0.6,0.37
									c-0.31-0.07-0.61-0.14-0.92-0.21C123,163.52,122.99,163.52,122.98,163.52z M127.58,164.71c-0.01,0-0.01,0-0.01,0
									c-0.3-0.09-0.6-0.18-0.9-0.27c-0.27-0.08-0.42-0.35-0.35-0.62c0.08-0.27,0.35-0.42,0.61-0.35c0,0,0,0,0.01,0
									c0.31,0.09,0.61,0.18,0.92,0.27c0.27,0.08,0.42,0.36,0.34,0.63C128.11,164.63,127.84,164.78,127.58,164.71z"/>
							</g>
						</g>
						<g>
							<g>
								<path class="st10" d="M130.76,165.78c-0.01,0-0.03-0.01-0.04-0.01l-0.47-0.17c-0.26-0.1-0.4-0.38-0.3-0.64
									c0.1-0.26,0.37-0.39,0.64-0.3l0.48,0.17c0.26,0.1,0.39,0.38,0.3,0.65C131.27,165.71,131.01,165.84,130.76,165.78z"/>
							</g>
						</g>
					</g>
					<g>
						<g>
							<g>
								<path class="st10" d="M110.19,167.37c-0.21-0.06-0.37-0.25-0.37-0.48c0-0.28,0.22-0.5,0.5-0.5l0.51,0
									c0.27,0,0.5,0.23,0.5,0.5s-0.23,0.5-0.5,0.5h-0.5C110.28,167.39,110.24,167.38,110.19,167.37z"/>
							</g>
						</g>
						<g>
							<g>
								<path class="st10" d="M114.01,167.49c-0.23-0.06-0.39-0.28-0.37-0.52c0.02-0.28,0.26-0.48,0.54-0.46
									c0.37,0.03,0.74,0.06,1.11,0.09c0.28,0.02,0.48,0.27,0.46,0.55c-0.03,0.28-0.27,0.48-0.55,0.46
									c-0.36-0.03-0.73-0.06-1.09-0.09C114.07,167.51,114.04,167.5,114.01,167.49z M118.41,167.99c-0.24-0.07-0.4-0.31-0.36-0.56
									c0.04-0.27,0.3-0.46,0.57-0.42c0.37,0.06,0.74,0.12,1.1,0.18c0.27,0.06,0.46,0.31,0.41,0.58c-0.05,0.27-0.31,0.46-0.58,0.41
									c-0.36-0.06-0.72-0.13-1.08-0.18C118.44,168,118.42,167.99,118.41,167.99z M122.74,168.85c-0.26-0.07-0.42-0.34-0.35-0.6
									c0.06-0.27,0.34-0.43,0.61-0.37c0.36,0.09,0.72,0.18,1.08,0.28h0c0.27,0.07,0.42,0.35,0.35,0.61
									c-0.07,0.27-0.35,0.43-0.61,0.36c-0.35-0.1-0.71-0.18-1.06-0.27C122.75,168.86,122.74,168.85,122.74,168.85z"/>
							</g>
						</g>
						<g>
							<g>
								<path class="st10" d="M127.47,170.25c-0.01,0-0.02-0.01-0.04-0.01l-0.47-0.16c-0.26-0.09-0.4-0.37-0.32-0.64
									c0.09-0.26,0.37-0.38,0.64-0.32l0.48,0.16c0.26,0.09,0.4,0.38,0.31,0.64C127.98,170.18,127.72,170.32,127.47,170.25z"/>
							</g>
						</g>
					</g>
				</g>
			</g>
			<g>
				<path class="st6" d="M74.03,121.2c0,0,43.07,9.16,54.2,3.57c11.12-5.59,10.25-18.93,0.5-24.84c-9.75-5.91-22.49-1.15-33.47,6.13
					C83.57,113.81,74.03,121.2,74.03,121.2z"/>
			</g>
			<g>
				<path class="st6" d="M137.09,154.67c-0.08,0-0.17-0.01-0.25-0.04c-0.38-0.14-0.58-0.56-0.44-0.94c0.66-1.79,0.95-3.75,0.84-5.65
					c-0.02-0.41,0.29-0.75,0.69-0.78c0.4-0.03,0.75,0.29,0.78,0.69c0.12,2.11-0.2,4.27-0.93,6.25
					C137.67,154.49,137.39,154.67,137.09,154.67z"/>
			</g>
			<g>
				<path class="st6" d="M137.97,151.51c-0.19,0-0.38-0.07-0.52-0.22c-0.29-0.29-0.28-0.75,0.01-1.04c1.05-1.04,2.66-1.48,4.09-1.13
					c0.39,0.1,0.63,0.49,0.54,0.89c-0.1,0.39-0.5,0.63-0.89,0.54c-0.95-0.23-2.01,0.06-2.71,0.75
					C138.35,151.44,138.16,151.51,137.97,151.51z"/>
			</g>
		</g>
	</g>
	<g>
		<g>
			<path class="st11" d="M239.98,280.62l-0.06,1.04c-29.2,10.88-54.67,4.12-63.2,1.2v-4.69H222L239.98,280.62z"/>
		</g>
		<g>
			<path class="st4" d="M173.66,283.53c-18.42-2.89-1.76-50.74-1.76-50.74l0.34-43.78c6.89-4.86,19.48-9.69,43.92-9.21
				c0,0,23.43,5.86,32.24,13.93c0,0,10.92,75.8-3.4,94.66L173.66,283.53z"/>
		</g>
		<g>
			<path class="st3" d="M204.95,203.92c-1.05,0-2.11-0.12-3.14-0.38c-6.25-1.56-10.85-7.83-10.47-14.26
				c0.03-0.41,0.37-0.71,0.78-0.69c0.41,0.03,0.72,0.37,0.69,0.78c-0.34,5.65,3.86,11.37,9.36,12.75c5.5,1.38,11.89-1.69,14.25-6.84
				c0.17-0.37,0.61-0.53,0.98-0.36c0.37,0.17,0.53,0.61,0.36,0.98C215.51,200.77,210.26,203.92,204.95,203.92z"/>
		</g>
		<g>
			<path class="st3" d="M173.22,207.26c-0.01,0-0.03,0-0.04,0c-0.41-0.02-0.72-0.36-0.7-0.77c0.34-7.02-3.09-14.25-8.75-18.43
				c-0.33-0.24-0.4-0.7-0.15-1.03c0.24-0.33,0.7-0.4,1.03-0.15c6.13,4.53,9.71,12.07,9.34,19.69
				C173.94,206.95,173.61,207.26,173.22,207.26z"/>
		</g>
		<g>
			<path class="st3" d="M244.99,288.4c0,0,0.93,4.66,0,8.56l-73.51-4.36l2.18-9.07L244.99,288.4z"/>
		</g>
		<g>
			<g>
				<path class="st6" d="M202.44,114.83c0,0,25.41,6.08,30.33,15.02c4.92,8.94-24.5,31.57-24.5,31.57l-12.56-29.23L202.44,114.83z"
					/>
			</g>
			<g>
				<path class="st6" d="M160.28,163.68c-11.06-13.65-12.35-34.02-4.75-45.01c7.61-10.99,29.44-20.99,45.54-9.75
					s10.99,33.28,10.99,33.28L160.28,163.68z"/>
			</g>
			<g>
				<g>
					<path class="st0" d="M216.45,179.82l-9.98-29.43c0,0,12.49-2.19,8.58-11.22c-3.48-8.05-12.12-4.04-14.14,1.76
						c0,0-7.54-30.66-31.81-20.03s-7.02,42.38-2.89,50.09c7.29,13.57,20.54,14.7,27.9,11.51l4.02,8.56c0,0,3.44,7.54,10.39,4.06
						C217.8,190.49,216.45,179.82,216.45,179.82z"/>
				</g>
			</g>
			<g>
				<g>
					<path class="st0" d="M164,161.82c0,0-13.12-0.99-9.85,8.97c3.6,10.96,15.59,0.5,15.59,0.5L164,161.82z"/>
				</g>
			</g>
			<g>
				<g>
					<path class="st6" d="M185.73,146.28c0.94,1.25,0.69,3.03-0.56,3.97c-1.25,0.94-3.03,0.69-3.97-0.56
						c-0.94-1.25-0.69-3.03,0.56-3.97C183.01,144.78,184.79,145.03,185.73,146.28z"/>
				</g>
			</g>
			<g>
				<g>
					<path class="st6" d="M173.52,152.4c0.94,1.25,0.69,3.03-0.56,3.97c-1.25,0.94-3.03,0.69-3.97-0.56
						c-0.94-1.25-0.69-3.03,0.56-3.97C170.8,150.9,172.57,151.15,173.52,152.4z"/>
				</g>
			</g>
			<g>
				<path class="st6" d="M178.49,162.54c-0.22,0-0.44-0.04-0.66-0.14c-1.42-0.62-1.87-3.03-1.47-7.83c0.03-0.41,0.38-0.71,0.79-0.67
					c0.41,0.03,0.7,0.39,0.67,0.79c-0.48,5.81,0.55,6.34,0.6,6.36c0.21,0.09,0.7-0.24,0.95-0.51c0.28-0.3,0.74-0.32,1.04-0.04
					c0.3,0.27,0.32,0.74,0.04,1.03C180.33,161.65,179.49,162.54,178.49,162.54z"/>
			</g>
			<g>
				<path class="st6" d="M182.31,166.56c-0.24,0-0.48-0.12-0.62-0.34c-0.22-0.34-0.11-0.8,0.23-1.01c1.84-1.16,3.25-3.02,3.84-5.12
					c0.11-0.39,0.51-0.62,0.91-0.51c0.39,0.11,0.61,0.52,0.5,0.91c-0.7,2.44-2.33,4.61-4.47,5.96
					C182.58,166.52,182.45,166.56,182.31,166.56z"/>
			</g>
			<g>
				<path class="st6" d="M166.33,171.21c-0.23,0-0.46-0.11-0.6-0.32c-1.42-2.05-2.64-4.25-3.63-6.54c-0.16-0.37,0.01-0.8,0.38-0.97
					c0.37-0.16,0.81,0.01,0.97,0.38c0.95,2.2,2.12,4.31,3.49,6.28c0.23,0.33,0.15,0.79-0.18,1.02
					C166.62,171.17,166.48,171.21,166.33,171.21z"/>
			</g>
			<g>
				<path class="st6" d="M160.28,169.22c-0.3,0-0.58-0.18-0.69-0.48c-0.14-0.38,0.05-0.8,0.43-0.94l3.56-1.32
					c0.38-0.14,0.8,0.05,0.94,0.43c0.14,0.38-0.05,0.8-0.43,0.94l-3.56,1.32C160.45,169.2,160.37,169.22,160.28,169.22z"/>
			</g>
			<g>
				<path class="st6" d="M205.84,146.02c-0.28,0-0.55-0.16-0.67-0.44c-0.72-1.62-0.61-3.57,0.3-5.1c0.91-1.53,2.57-2.56,4.34-2.71
					c0.41-0.03,0.76,0.27,0.79,0.67c0.03,0.41-0.27,0.76-0.67,0.79c-1.3,0.1-2.52,0.87-3.19,1.99c-0.67,1.12-0.75,2.56-0.22,3.75
					c0.16,0.37,0,0.8-0.37,0.97C206.04,146,205.94,146.02,205.84,146.02z"/>
			</g>
			<g>
				<path class="st6" d="M208.52,143.49c-0.1,0-0.2-0.02-0.3-0.06l-2.55-1.12c-0.37-0.16-0.54-0.6-0.38-0.97s0.6-0.54,0.97-0.38
					l2.55,1.12c0.37,0.16,0.54,0.6,0.38,0.97C209.08,143.33,208.81,143.49,208.52,143.49z"/>
			</g>
			<g>
				<path class="st6" d="M175.82,141.06c-0.14,0-0.28-0.04-0.4-0.12c-0.34-0.22-0.44-0.68-0.22-1.02c1.85-2.84,5.21-4.54,8.61-4.34
					c0.41,0.03,0.71,0.37,0.69,0.78c-0.02,0.41-0.38,0.71-0.78,0.69c-2.81-0.17-5.75,1.31-7.29,3.68
					C176.3,140.95,176.06,141.06,175.82,141.06z"/>
			</g>
			<g>
				<path class="st6" d="M162.03,149.62c-0.08,0-0.15-0.01-0.23-0.04c-0.39-0.13-0.59-0.55-0.46-0.93c1.09-3.27,4.96-5.36,8.29-4.46
					c0.39,0.11,0.62,0.51,0.52,0.9c-0.11,0.39-0.51,0.62-0.9,0.52c-2.62-0.7-5.66,0.93-6.51,3.5
					C162.63,149.42,162.34,149.62,162.03,149.62z"/>
			</g>
			<g>
				<path class="st6" d="M194.12,182.5c6.81-3.33,10.84-13.27,10.84-13.27s0.37,11.28-8.85,17.51L194.12,182.5z"/>
			</g>
			<g>
				<path class="st8" d="M188.8,156.98c1.62,1.57,4.2,1.52,5.77-0.1c1.57-1.62,1.52-4.2-0.1-5.77c-1.62-1.57-4.2-1.52-5.77,0.1
					C187.14,152.83,187.18,155.41,188.8,156.98z"/>
			</g>
			<g>
				<path class="st8" d="M168.02,169.81c1.62,1.57,4.2,1.52,5.77-0.1c1.57-1.62,1.52-4.2-0.1-5.77c-1.62-1.57-4.2-1.52-5.77,0.1
					C166.35,165.66,166.4,168.24,168.02,169.81z"/>
			</g>
		</g>
		<g>
			<g>
				<path class="st7" d="M196.77,154.56l4.39-12.93l0.7-2.61c0,0-3.21,4.69-6.95,16.71L196.77,154.56z"/>
			</g>
			<g>
				<polygon class="st7" points="206.48,150.4 204.37,161.79 205.73,162.17 207.6,150.14 				"/>
			</g>
			<g>
				<path class="st7" d="M165.95,170.62c0,0,8.77-8.32,11.34-9.79c2.24-1.28,16.28-5.39,19.48-6.27c3.09,2.33,8.97,7.61,8.97,7.61
					c0.2,6.78-2.14,16-12.19,20.59C175.37,191.08,165.95,170.62,165.95,170.62z"/>
			</g>
			<g>
				<path class="st12" d="M192.53,161.91l-0.48,0.08c-0.27,0.05-0.53-0.13-0.58-0.41c-0.05-0.27,0.13-0.53,0.41-0.58l0.51-0.09
					c0.27-0.04,0.53,0.14,0.58,0.42c0.03,0.2-0.05,0.38-0.2,0.49C192.68,161.87,192.61,161.9,192.53,161.91z M189.21,162.6
					c0.16-0.12,0.25-0.33,0.19-0.54c-0.07-0.27-0.35-0.42-0.61-0.35c-0.34,0.09-0.68,0.19-1.01,0.29c-0.26,0.08-0.41,0.36-0.33,0.63
					c0.08,0.27,0.36,0.41,0.63,0.33c0.32-0.1,0.65-0.19,0.98-0.28C189.11,162.65,189.17,162.63,189.21,162.6z M185.28,163.91
					c0.18-0.13,0.26-0.37,0.17-0.6c-0.1-0.26-0.39-0.38-0.65-0.28c-0.33,0.13-0.65,0.26-0.97,0.4c-0.26,0.11-0.37,0.41-0.26,0.66
					c0.11,0.25,0.41,0.37,0.66,0.26c0.31-0.13,0.63-0.27,0.94-0.39C185.22,163.95,185.25,163.93,185.28,163.91z M181.53,165.66
					c0.2-0.15,0.27-0.42,0.15-0.65c-0.13-0.24-0.44-0.34-0.68-0.21c-0.31,0.16-0.61,0.34-0.92,0.51c-0.25,0.14-0.32,0.44-0.19,0.68
					c0.14,0.24,0.44,0.32,0.68,0.19c0.3-0.17,0.59-0.33,0.89-0.49C181.49,165.68,181.51,165.67,181.53,165.66z M173.94,171.05
					c0.02-0.01,0.03-0.03,0.05-0.04c0.25-0.23,0.5-0.46,0.76-0.68c0.21-0.18,0.23-0.5,0.05-0.71s-0.49-0.23-0.71-0.05
					c-0.27,0.23-0.53,0.46-0.78,0.7c-0.2,0.19-0.22,0.51-0.03,0.71C173.46,171.17,173.74,171.19,173.94,171.05z M177.99,167.81
					c0.22-0.16,0.28-0.47,0.12-0.69c-0.16-0.23-0.47-0.29-0.7-0.13l-0.49,0.35l-0.36,0.26c-0.22,0.16-0.27,0.48-0.11,0.7
					c0.16,0.22,0.48,0.27,0.7,0.11c0,0,0,0,0,0l0.36-0.26L177.99,167.81C177.99,167.82,177.99,167.81,177.99,167.81z M171.42,173.63
					c0.03-0.02,0.06-0.05,0.08-0.08l0.33-0.37c0.19-0.2,0.17-0.52-0.03-0.71c-0.21-0.19-0.52-0.17-0.71,0.04l-0.34,0.38
					c-0.18,0.21-0.16,0.53,0.04,0.71C170.97,173.76,171.23,173.77,171.42,173.63z M194.33,165.84c0.17-0.12,0.25-0.35,0.19-0.56
					c-0.08-0.27-0.37-0.41-0.63-0.33l-0.48,0.16c-0.27,0.09-0.41,0.37-0.32,0.63c0.09,0.26,0.37,0.41,0.63,0.32l0.48-0.15
					C194.24,165.89,194.29,165.87,194.33,165.84z M191.17,166.95c0.18-0.13,0.26-0.37,0.18-0.59c-0.1-0.26-0.39-0.39-0.65-0.29
					c-0.3,0.11-0.6,0.23-0.89,0.35c-0.26,0.1-0.38,0.4-0.28,0.65c0.1,0.26,0.4,0.38,0.65,0.28c0.29-0.12,0.58-0.23,0.87-0.35
					C191.1,167,191.14,166.98,191.17,166.95z M187.67,168.43c0.19-0.14,0.27-0.4,0.16-0.62c-0.12-0.25-0.42-0.36-0.67-0.24
					c-0.29,0.13-0.58,0.27-0.87,0.41c-0.25,0.11-0.35,0.42-0.23,0.67c0.12,0.25,0.42,0.35,0.67,0.23c0.28-0.14,0.57-0.27,0.85-0.41
					C187.62,168.47,187.65,168.45,187.67,168.43z M184.28,170.15c0.2-0.15,0.27-0.42,0.15-0.65c-0.13-0.24-0.44-0.33-0.68-0.2
					c-0.28,0.15-0.56,0.31-0.84,0.47c-0.24,0.13-0.32,0.44-0.19,0.68c0.14,0.24,0.44,0.32,0.68,0.19c0.27-0.16,0.55-0.31,0.82-0.46
					C184.25,170.17,184.27,170.16,184.28,170.15z M181.01,172.08c0.22-0.15,0.27-0.45,0.13-0.68c-0.15-0.23-0.46-0.3-0.69-0.15
					c-0.27,0.17-0.54,0.34-0.8,0.52c-0.25,0.11-0.3,0.46-0.15,0.7c0.15,0.23,0.46,0.3,0.7,0.14c0.26-0.17,0.53-0.34,0.79-0.51
					C181,172.09,181,172.08,181.01,172.08z M177.11,174.79c0,0,0.01-0.01,0.01-0.01c0.25-0.19,0.5-0.38,0.75-0.56
					c0.22-0.16,0.27-0.48,0.11-0.7c-0.16-0.22-0.47-0.27-0.7-0.11c0,0,0,0-0.01,0c-0.26,0.19-0.51,0.38-0.77,0.57
					c-0.22,0.17-0.27,0.48-0.1,0.7C176.58,174.9,176.89,174.94,177.11,174.79z M174.49,176.89c0.01-0.01,0.02-0.02,0.03-0.03
					l0.38-0.32c0.21-0.18,0.24-0.49,0.06-0.71c-0.18-0.21-0.49-0.24-0.71-0.06l-0.39,0.33c-0.21,0.18-0.23,0.5-0.06,0.71
					C173.99,177.01,174.28,177.04,174.49,176.89z M194.33,171.26c0.18-0.13,0.26-0.36,0.18-0.58c-0.1-0.26-0.38-0.39-0.64-0.3
					l-0.48,0.18c-0.26,0.1-0.39,0.39-0.29,0.65c0.1,0.26,0.39,0.39,0.65,0.29l0.47-0.17C194.26,171.31,194.3,171.28,194.33,171.26z
					 M190.8,172.7c0.19-0.14,0.27-0.39,0.16-0.61c-0.11-0.25-0.41-0.36-0.67-0.25c-0.34,0.15-0.68,0.31-1.01,0.47
					c-0.25,0.12-0.36,0.42-0.24,0.67c0.12,0.25,0.42,0.36,0.67,0.24c0.33-0.16,0.66-0.31,1-0.46
					C190.74,172.74,190.77,172.72,190.8,172.7z M186.85,174.69c0.2-0.15,0.27-0.43,0.15-0.65c-0.13-0.24-0.44-0.33-0.68-0.2
					c-0.32,0.18-0.65,0.37-0.97,0.55c-0.24,0.15-0.32,0.45-0.18,0.69c0.14,0.24,0.45,0.32,0.69,0.18c0.32-0.18,0.63-0.37,0.95-0.54
					C186.82,174.71,186.83,174.7,186.85,174.69z M183.08,177c0.22-0.16,0.28-0.46,0.13-0.69c-0.15-0.23-0.47-0.29-0.7-0.14
					c-0.31,0.21-0.61,0.42-0.92,0.63c0,0,0,0,0,0c-0.22,0.16-0.28,0.47-0.12,0.7s0.47,0.28,0.7,0.12c0.3-0.21,0.6-0.42,0.9-0.62
					C183.07,177.01,183.08,177,183.08,177z M179.13,179.94c0.01-0.01,0.02-0.01,0.03-0.02l0.38-0.31c0.22-0.17,0.25-0.49,0.08-0.71
					s-0.48-0.22-0.71-0.08l-0.39,0.32c-0.21,0.18-0.24,0.49-0.06,0.71C178.62,180.06,178.92,180.1,179.13,179.94z"/>
			</g>
		</g>
		<g>
			<path class="st6" d="M158.58,127.47c9.25,9.83,27.88,15.93,42.33,13.47l-3.95-28.99l-38.03,11.93L158.58,127.47z"/>
		</g>
	</g>
	<g>
		<g>
			<g>
				<path class="st2" d="M163.73,236.24c0,0-16.18,22.45-4.74,31.01c11.45,8.56,21.96-4.47,21.96-4.47L163.73,236.24z"/>
			</g>
			<g>
				<path class="st2" d="M146.41,280.21c3.82,3.99,10.55,4.75,15.16,1.72c6.1-4,6.52-12.87,2-18.23
					c-5.91-7.01-16.97-4.14-19.76,4.32C142.45,272.15,143.38,277.05,146.41,280.21z"/>
			</g>
			<g>
				<path class="st2" d="M130.66,284.31c-1.17-3.31,20.07-13.87,24.55-10.83c4.48,3.05,2.2,25.31-1.08,26s-4.28-10.63-4.28-10.63
					s-1.89,5.46-6.82,5.12c-4.92-0.34,1.17-10.24,1.17-10.24S132.03,288.18,130.66,284.31z"/>
			</g>
		</g>
		<g>
			<g>
				<path class="st2" d="M213.14,226.2c0,0,20.45,18.56,12.89,32.64c-6.76,12.59-22.36,1.45-22.36,1.45L213.14,226.2z"/>
			</g>
		</g>
		<g>
			<path class="st2" d="M210.65,214.97c11.02,18.69,4.06,48.32-24.13,49.95c-13.17,0.76-28.17-4.95-30.68-21.51
				c-2.42-15.97,2.39-31.65,15.83-39.31c9.39-5.35,21.84-3.24,30.64,2.32C205.96,208.73,208.69,211.65,210.65,214.97z"/>
		</g>
		<g>
			<polygon class="st13" points="145.7,343.29 142.8,379.26 154.3,379.26 157.64,345.47 			"/>
		</g>
		<g>
			<path class="st5" d="M206.98,276.99c3.99,2.48,27.22,14.33,30.55,25.82c3.4,11.75,5.63,43.57,5.63,43.57l-18.02,2.27l0.96,30.63
				h-72.82l2.65-31.39l-13.13-4.07c0,0,5-43.85,8.64-49.46c3.63-5.6,30.56-17.35,30.56-17.35L206.98,276.99L206.98,276.99z"/>
		</g>
		<g>
			<polygon class="st0" points="238.43,346.89 222.48,348.86 223.82,379.26 241.09,379.26 			"/>
		</g>
		<g>
			<polygon class="st2" points="222.54,350.28 222.48,348.86 238.43,346.89 238.68,350.15 			"/>
		</g>
		<g>
			<path class="st14" d="M155.56,345.83c-0.03,0-0.06,0-0.09-0.01c-0.4-0.05-0.69-0.42-0.64-0.82l4.99-40.15
				c0.05-0.4,0.42-0.69,0.82-0.64c0.4,0.05,0.69,0.42,0.64,0.82l-4.99,40.15C156.24,345.56,155.92,345.83,155.56,345.83z"/>
		</g>
		<g>
			<path class="st7" d="M184.59,274.07c0,0-4.27,1.9-6.22,4.83c-1.76,2.65-5.09,19.74,0.16,19c2.22-0.32,11.34-8.37,11.34-8.37
				s10.14,10.17,12.67,9.81c2.54-0.36,9.12-22.88,0.97-25.8C197.88,271.52,184.59,274.07,184.59,274.07z"/>
		</g>
		<g>
			<g>
				<path class="st0" d="M203,276.33l1.97-28.72c0,0,11.46,2.59,11.34-6.53c-0.11-8.13-8.92-7.78-12.71-3.54
					c0,0,4.49-28.9-20.05-28.48c-24.54,0.43-21.13,33.73-20.35,41.79c1.39,14.2,12.31,19.9,19.75,19.8l0.39,8.76
					c0,0,0.25,7.68,7.43,7.18C200.35,285.93,203,276.33,203,276.33z"/>
			</g>
		</g>
		<g>
			<g>
				<path class="st2" d="M188.63,236.83c0.36,1.41-0.49,2.83-1.9,3.19c-1.41,0.36-2.83-0.49-3.19-1.9c-0.36-1.41,0.49-2.83,1.9-3.19
					C186.85,234.57,188.28,235.42,188.63,236.83z"/>
			</g>
		</g>
		<g>
			<g>
				<path class="st2" d="M175.41,238.89c0.36,1.41-0.49,2.83-1.9,3.19c-1.41,0.36-2.84-0.49-3.19-1.9c-0.36-1.41,0.49-2.84,1.9-3.19
					C173.62,236.63,175.06,237.48,175.41,238.89z"/>
			</g>
		</g>
		<g>
			<g>
				<path class="st15" d="M179.72,248.61c0.31-0.05,0.56-0.3,0.59-0.62c0.04-0.39-0.24-0.74-0.63-0.77
					c-1.33-0.14-2.05-0.45-2.39-1.03c-0.54-0.9-0.29-2.7,0.74-5.2c0.15-0.36-0.03-0.77-0.39-0.92c-0.36-0.14-0.77,0.03-0.92,0.39
					c-1.24,3.05-1.45,5.11-0.64,6.46c0.75,1.26,2.17,1.57,3.45,1.7C179.6,248.62,179.66,248.61,179.72,248.61z"/>
			</g>
		</g>
		<g>
			<g>
				<path class="st15" d="M178.92,252.87C178.92,252.87,178.92,252.87,178.92,252.87c2.33-0.39,4.51-1.67,5.98-3.51
					c0.25-0.3,0.2-0.75-0.11-0.99c-0.3-0.25-0.75-0.19-0.99,0.11c-1.26,1.57-3.12,2.67-5.1,3c-0.39,0.06-0.64,0.43-0.58,0.81
					C178.18,252.67,178.54,252.93,178.92,252.87z"/>
			</g>
		</g>
		<g>
			<g>
				<path class="st15" d="M206.36,243.71c0.35-0.05,0.61-0.36,0.6-0.71c-0.03-1.2,0.55-2.39,1.51-3.11
					c0.96-0.72,2.27-0.93,3.41-0.56c0.38,0.12,0.77-0.08,0.89-0.45c0.12-0.37-0.08-0.77-0.45-0.89c-1.57-0.51-3.37-0.22-4.7,0.77
					c-1.32,0.99-2.12,2.62-2.08,4.27c0.01,0.39,0.33,0.7,0.72,0.69C206.3,243.72,206.34,243.72,206.36,243.71z"/>
			</g>
		</g>
		<g>
			<g>
				<path class="st15" d="M209.56,242.51c0.14-0.02,0.27-0.08,0.38-0.19c0.28-0.27,0.29-0.72,0.03-1l-1.78-1.87
					c-0.27-0.29-0.72-0.29-1-0.03c-0.28,0.27-0.29,0.71-0.03,1l1.78,1.87C209.11,242.47,209.34,242.54,209.56,242.51z"/>
			</g>
		</g>
		<g>
			<g>
				<path class="st15" d="M190.72,228.28c0.26-0.04,0.49-0.2,0.62-0.46c0.2-0.41,0.03-0.91-0.38-1.1c-2.87-1.4-6.42-1.14-9.06,0.65
					c-0.38,0.26-0.48,0.77-0.22,1.15c0.26,0.38,0.77,0.47,1.15,0.22c2.11-1.44,5.09-1.66,7.4-0.53
					C190.38,228.29,190.55,228.31,190.72,228.28z"/>
			</g>
		</g>
		<g>
			<g>
				<path class="st15" d="M175.4,230.51c0.2-0.03,0.39-0.14,0.53-0.31c0.28-0.36,0.21-0.88-0.15-1.16c-2.63-2.03-6.7-1.64-8.88,0.87
					c-0.3,0.34-0.26,0.87,0.08,1.17c0.34,0.3,0.87,0.26,1.17-0.08c1.6-1.83,4.7-2.13,6.62-0.65
					C174.95,230.49,175.18,230.54,175.4,230.51z"/>
			</g>
		</g>
		<g>
			<path class="st2" d="M182.96,270.65c4.92,0.27,14.21-6.8,14.21-6.8s-3.6,7.52-14.1,9.46L182.96,270.65z"/>
		</g>
		<g>
			<path class="st8" d="M187.52,246.93c0.83,1.92,3.05,2.8,4.97,1.97s2.8-3.05,1.97-4.97c-0.83-1.92-3.05-2.8-4.97-1.97
				C187.57,242.79,186.69,245.01,187.52,246.93z"/>
		</g>
		<g>
			<path class="st8" d="M165.17,250.48c0.83,1.92,3.05,2.8,4.97,1.97c1.92-0.83,2.8-3.05,1.97-4.97c-0.83-1.92-3.05-2.8-4.97-1.97
				C165.22,246.34,164.34,248.56,165.17,250.48z"/>
		</g>
		<g>
			<path class="st2" d="M203.6,237.54c-1.31,1.83-1.16,13.88-2.46,12.93c-1.3-0.95-2.41-21.77-2.41-21.77s-10.81-5.81-12.85-13.39
				c0,0-6.08,21.12-24.85,21.94c0,0-0.1-32.57,24.79-31.56s24.71,22.9,24.71,22.9L203.6,237.54z"/>
		</g>
		<g>
			<g>
				<path class="st7" d="M191.33,204.89c19.2,6.02,13.29,27.63,13.29,27.63s1.64-13.58-13.29-21.07
					c-12.91-6.48-26.82,0.98-30.69,8.83C163.08,214.75,171.96,198.81,191.33,204.89z"/>
			</g>
		</g>
		<g>
			<g>
				<path class="st7" d="M196.15,247.59l7.3-9.13l2.9-2.96c0,0-2.47-0.09-12.27,12.38L196.15,247.59z"/>
			</g>
			<g>
				<polygon class="st7" points="204.98,247.61 199.46,256.84 200.93,257.63 206.29,247.82 				"/>
			</g>
			<g>
				<path class="st7" d="M163.11,249.88c0,0,11.03-4.17,13.81-4.44c2.43-0.23,16.13,1.67,19.22,2.15
					c1.76,3.21,4.78,10.03,4.78,10.03c-2.46,5.92-8.04,12.96-18.49,13.02C163.54,270.77,163.11,249.88,163.11,249.88z"/>
			</g>
			<g>
				<path class="st12" d="M189.64,252.29l-0.45-0.12c-0.25-0.06-0.41-0.32-0.35-0.58c0.06-0.25,0.32-0.41,0.58-0.35l0.47,0.12
					c0.25,0.07,0.4,0.33,0.34,0.58c-0.05,0.18-0.2,0.31-0.37,0.34C189.79,252.31,189.72,252.31,189.64,252.29z M186.52,251.59
					c0.19-0.04,0.34-0.19,0.37-0.39c0.04-0.26-0.13-0.5-0.39-0.55c-0.33-0.05-0.66-0.1-0.98-0.14c-0.26-0.03-0.5,0.15-0.53,0.41
					c-0.03,0.26,0.15,0.5,0.41,0.53c0.32,0.04,0.64,0.09,0.95,0.14C186.41,251.6,186.47,251.6,186.52,251.59z M182.62,251.19
					c0.21-0.04,0.37-0.22,0.38-0.44c0.01-0.26-0.19-0.48-0.45-0.49c-0.33-0.01-0.66-0.03-0.99-0.03c-0.26-0.01-0.48,0.21-0.48,0.47
					c0,0.26,0.2,0.48,0.47,0.48c0.32,0.01,0.64,0.01,0.96,0.03C182.55,251.21,182.59,251.2,182.62,251.19z M178.71,251.24
					c0.23-0.04,0.4-0.26,0.38-0.5c-0.02-0.26-0.24-0.46-0.51-0.44c-0.33,0.02-0.66,0.05-0.99,0.08c-0.27,0.02-0.45,0.26-0.43,0.52
					c0.03,0.26,0.26,0.45,0.52,0.42c0.32-0.03,0.64-0.06,0.96-0.08C178.67,251.25,178.69,251.25,178.71,251.24z M170.08,252.95
					c0.02,0,0.04-0.01,0.06-0.02c0.3-0.1,0.61-0.2,0.92-0.29c0.25-0.08,0.39-0.34,0.32-0.59c-0.08-0.25-0.33-0.39-0.59-0.32
					c-0.32,0.1-0.63,0.2-0.95,0.3c-0.25,0.08-0.38,0.35-0.3,0.6C169.62,252.87,169.85,253,170.08,252.95z M174.82,251.73
					c0.25-0.05,0.42-0.3,0.37-0.55c-0.05-0.26-0.29-0.43-0.55-0.38l-0.56,0.11l-0.41,0.08c-0.26,0.05-0.42,0.3-0.37,0.56
					c0.05,0.25,0.3,0.42,0.56,0.37h0l0.41-0.08L174.82,251.73C174.82,251.73,174.82,251.73,174.82,251.73z M166.9,254.2
					c0.04-0.01,0.07-0.02,0.1-0.03l0.43-0.19c0.24-0.1,0.35-0.39,0.25-0.62c-0.11-0.24-0.39-0.35-0.63-0.24l-0.44,0.2
					c-0.24,0.11-0.34,0.39-0.24,0.63C166.47,254.13,166.69,254.24,166.9,254.2z M189.68,256.36c0.2-0.04,0.35-0.2,0.38-0.41
					c0.03-0.26-0.16-0.49-0.42-0.53l-0.48-0.05c-0.26-0.03-0.49,0.16-0.52,0.42c-0.03,0.26,0.16,0.49,0.42,0.52l0.47,0.05
					C189.58,256.38,189.63,256.37,189.68,256.36z M186.52,256.1c0.21-0.04,0.37-0.22,0.38-0.44c0.01-0.26-0.18-0.48-0.45-0.5
					c-0.3-0.02-0.6-0.03-0.91-0.04c-0.26-0.01-0.48,0.19-0.49,0.46c-0.01,0.26,0.2,0.48,0.46,0.49c0.3,0.01,0.59,0.03,0.89,0.04
					C186.44,256.11,186.48,256.11,186.52,256.1z M182.93,256.02c0.22-0.04,0.38-0.24,0.38-0.47c0-0.26-0.22-0.47-0.48-0.47
					c-0.3,0-0.6,0.01-0.91,0.02c-0.26,0-0.47,0.22-0.46,0.49c0.01,0.26,0.23,0.47,0.49,0.46c0.3-0.01,0.6-0.01,0.89-0.02
					C182.87,256.03,182.9,256.03,182.93,256.02z M179.34,256.18c0.23-0.05,0.4-0.26,0.38-0.5c-0.02-0.26-0.25-0.46-0.51-0.44
					c-0.3,0.02-0.6,0.05-0.9,0.08c-0.26,0.02-0.45,0.26-0.43,0.52c0.03,0.26,0.26,0.45,0.52,0.43c0.3-0.03,0.59-0.05,0.89-0.08
					C179.3,256.19,179.32,256.19,179.34,256.18z M175.77,256.58c0.25-0.05,0.41-0.28,0.38-0.53c-0.04-0.26-0.28-0.44-0.54-0.4
					c-0.3,0.04-0.6,0.09-0.89,0.14c-0.26,0-0.44,0.28-0.39,0.54c0.04,0.26,0.29,0.44,0.54,0.39c0.29-0.05,0.59-0.09,0.88-0.13
					C175.76,256.58,175.77,256.58,175.77,256.58z M171.36,257.4c0,0,0.01,0,0.01,0c0.29-0.07,0.58-0.13,0.87-0.19
					c0.26-0.05,0.42-0.31,0.37-0.56c-0.05-0.25-0.3-0.42-0.56-0.37c0,0,0,0-0.01,0c-0.3,0.06-0.59,0.13-0.89,0.2
					c-0.25,0.06-0.42,0.31-0.36,0.57C170.86,257.29,171.11,257.45,171.36,257.4z M168.29,258.2c0.01,0,0.03-0.01,0.04-0.01
					l0.45-0.13c0.25-0.07,0.4-0.33,0.33-0.59c-0.07-0.25-0.33-0.39-0.59-0.33l-0.46,0.13c-0.25,0.07-0.4,0.34-0.32,0.59
					C167.81,258.11,168.05,258.25,168.29,258.2z M187.57,261.04c0.2-0.04,0.37-0.21,0.38-0.43c0.02-0.26-0.18-0.49-0.44-0.51
					l-0.48-0.03c-0.26-0.02-0.49,0.18-0.5,0.44c-0.02,0.26,0.18,0.49,0.44,0.5l0.47,0.03C187.49,261.05,187.54,261.05,187.57,261.04
					z M183.97,260.91c0.22-0.04,0.38-0.23,0.38-0.47c0-0.26-0.21-0.48-0.48-0.47c-0.35,0-0.7,0.01-1.05,0.01
					c-0.26,0-0.47,0.22-0.46,0.48c0.01,0.26,0.22,0.47,0.48,0.46c0.34-0.01,0.69-0.01,1.04-0.01
					C183.91,260.92,183.94,260.92,183.97,260.91z M179.79,261.09c0.23-0.05,0.4-0.26,0.38-0.51c-0.02-0.26-0.25-0.46-0.51-0.43
					c-0.35,0.03-0.7,0.06-1.05,0.1c-0.26,0.04-0.45,0.26-0.42,0.52s0.26,0.45,0.52,0.42c0.34-0.04,0.69-0.07,1.03-0.1
					C179.76,261.1,179.78,261.1,179.79,261.09z M175.65,261.62c0.25-0.05,0.42-0.29,0.37-0.55c-0.04-0.26-0.29-0.43-0.55-0.39
					c-0.35,0.06-0.69,0.12-1.04,0.19h0c-0.25,0.05-0.42,0.3-0.37,0.56s0.3,0.42,0.56,0.38c0.34-0.06,0.68-0.13,1.02-0.19
					C175.64,261.63,175.64,261.63,175.65,261.62z M171.1,262.63c0.01,0,0.02-0.01,0.03-0.01l0.45-0.12
					c0.25-0.07,0.41-0.33,0.34-0.58s-0.33-0.38-0.58-0.34l-0.46,0.12c-0.25,0.07-0.4,0.33-0.33,0.58
					C170.62,262.53,170.86,262.68,171.1,262.63z"/>
			</g>
		</g>
	</g>
	<g>
		<g>
			<polygon class="st0" points="151.45,345.66 154.35,379.26 142.85,379.26 139.51,347.7 			"/>
		</g>
		<g>
			<path class="st16" d="M90.17,283.53c-3.99,2.32-27.22,13.43-30.55,24.19c-3.4,11.01-5.63,40.82-5.63,40.82l18.02,2.13
				l-0.96,28.59h72.83l-2.65-29.31l13.13-3.82c0,0-6.56-41.53-10.19-46.79c-3.63-5.25-29.01-15.82-29.01-15.82L90.17,283.53
				L90.17,283.53z"/>
		</g>
		<g>
			<polygon class="st0" points="58.73,349.03 74.67,350.88 73.33,379.26 56.06,379.26 			"/>
		</g>
		<g>
			<polygon class="st2" points="74.61,352.21 74.67,350.88 58.73,349.03 58.47,352.08 			"/>
		</g>
		<g>
			<path class="st5" d="M141.59,348.08c-0.36,0-0.68-0.27-0.73-0.64l-4.99-37.62c-0.05-0.4,0.23-0.77,0.63-0.82
				c0.4-0.06,0.77,0.23,0.82,0.63l4.99,37.62c0.05,0.4-0.23,0.77-0.63,0.82C141.66,348.08,141.62,348.08,141.59,348.08z"/>
		</g>
		<g>
			<path class="st7" d="M112.33,278.84c0,0,3.03,0.67,4.62,4.47c1.23,2.93,3.58,18.86,0.56,20.04
				c-3.22,1.26-12.08-11.51-12.08-11.51s-9.96,13.01-12.5,12.64c-2.54-0.36-9.12-22.88-0.97-25.8
				C97.6,276.67,112.33,278.84,112.33,278.84z"/>
		</g>
		<g>
			<path class="st2" d="M131.46,252.04c0,0,17.16-14.6,0.32-30.43c0,0,8.69,1.39,9.22,0.25c0.53-1.14-12.22-10.14-24.79-14.17
				c-11.84-3.79-21.77,0.32-25.18,3.71c-3.42,3.39-3.31,9.01-3.31,9.01c-8.05-0.74-8.67,7.15-7.39,11.87
				c1.67,6.14,11.84,29.78,11.84,29.78L131.46,252.04z"/>
		</g>
		<g>
			<g>
				<path class="st0" d="M92.47,280.18l-1.97-28.72c0,0-11.46,2.59-11.34-6.53c0.11-8.13,8.92-7.78,12.71-3.54
					c0,0-4.49-28.9,20.05-28.48c24.54,0.43,21.13,33.73,20.35,41.79c-1.39,14.2-12.31,19.9-19.75,19.8l-0.39,8.76
					c0,0-0.25,7.68-7.43,7.18C95.13,289.78,92.47,280.18,92.47,280.18z"/>
			</g>
		</g>
		<g>
			<g>
				<path class="st2" d="M106.84,240.67c-0.36,1.41,0.49,2.83,1.9,3.19c1.41,0.36,2.83-0.49,3.19-1.9c0.36-1.41-0.49-2.83-1.9-3.19
					C108.63,238.42,107.2,239.27,106.84,240.67z"/>
			</g>
		</g>
		<g>
			<g>
				<path class="st2" d="M120.06,242.73c-0.36,1.41,0.49,2.83,1.9,3.19c1.41,0.36,2.84-0.49,3.19-1.9c0.36-1.41-0.49-2.84-1.9-3.19
					S120.42,241.33,120.06,242.73z"/>
			</g>
		</g>
		<g>
			<g>
				<path class="st15" d="M115.75,252.45c-0.31-0.05-0.56-0.3-0.59-0.62c-0.04-0.39,0.24-0.74,0.63-0.77
					c1.33-0.14,2.05-0.45,2.39-1.03c0.54-0.9,0.29-2.7-0.74-5.2c-0.15-0.36,0.03-0.77,0.39-0.92c0.36-0.14,0.77,0.03,0.92,0.39
					c1.24,3.05,1.45,5.11,0.64,6.46c-0.75,1.26-2.17,1.57-3.45,1.7C115.87,252.46,115.81,252.46,115.75,252.45z"/>
			</g>
		</g>
		<g>
			<g>
				<path class="st15" d="M116.56,256.72C116.55,256.72,116.55,256.72,116.56,256.72c-2.33-0.39-4.51-1.67-5.98-3.51
					c-0.25-0.3-0.2-0.75,0.11-0.99c0.3-0.25,0.75-0.19,0.99,0.11c1.26,1.57,3.12,2.67,5.1,3c0.39,0.06,0.64,0.43,0.58,0.81
					C117.3,256.52,116.94,256.78,116.56,256.72z"/>
			</g>
		</g>
		<g>
			<g>
				<path class="st15" d="M89.11,247.56c-0.35-0.05-0.61-0.36-0.6-0.71c0.03-1.2-0.55-2.39-1.51-3.11
					c-0.96-0.72-2.27-0.93-3.41-0.56c-0.38,0.12-0.77-0.08-0.89-0.45c-0.12-0.37,0.08-0.77,0.45-0.89c1.57-0.51,3.37-0.22,4.7,0.77
					c1.32,0.99,2.12,2.62,2.08,4.27c-0.01,0.39-0.33,0.7-0.72,0.69C89.17,247.57,89.14,247.56,89.11,247.56z"/>
			</g>
		</g>
		<g>
			<g>
				<path class="st15" d="M85.91,246.35c-0.14-0.02-0.27-0.08-0.38-0.19c-0.28-0.27-0.29-0.72-0.03-1l1.78-1.87
					c0.27-0.29,0.72-0.29,1-0.03c0.28,0.27,0.29,0.71,0.03,1l-1.78,1.87C86.36,246.32,86.13,246.39,85.91,246.35z"/>
			</g>
		</g>
		<g>
			<g>
				<path class="st15" d="M104.76,232.13c-0.26-0.04-0.49-0.2-0.62-0.46c-0.2-0.41-0.03-0.91,0.38-1.1c2.87-1.4,6.42-1.14,9.06,0.65
					c0.38,0.26,0.48,0.77,0.22,1.15c-0.26,0.38-0.77,0.47-1.15,0.22c-2.11-1.44-5.09-1.66-7.4-0.53
					C105.09,232.13,104.92,232.16,104.76,232.13z"/>
			</g>
		</g>
		<g>
			<g>
				<path class="st15" d="M120.08,234.36c-0.2-0.03-0.39-0.14-0.53-0.31c-0.28-0.36-0.21-0.88,0.15-1.16
					c2.63-2.03,6.7-1.64,8.88,0.87c0.3,0.34,0.26,0.87-0.08,1.17c-0.34,0.3-0.87,0.26-1.17-0.08c-1.6-1.83-4.7-2.13-6.62-0.65
					C120.52,234.34,120.3,234.39,120.08,234.36z"/>
			</g>
		</g>
		<g>
			<path class="st2" d="M112.52,274.5c-4.92,0.27-14.03-6.71-14.03-6.71s5.23,8.95,13.84,11.05L112.52,274.5z"/>
		</g>
		<g>
			<path class="st8" d="M107.95,250.77c-0.83,1.92-3.05,2.8-4.97,1.97c-1.92-0.83-2.8-3.05-1.97-4.97c0.83-1.92,3.05-2.8,4.97-1.97
				C107.9,246.63,108.78,248.86,107.95,250.77z"/>
		</g>
		<g>
			<path class="st8" d="M130.31,254.33c-0.83,1.92-3.05,2.8-4.97,1.97c-1.92-0.83-2.8-3.05-1.97-4.97c0.83-1.92,3.05-2.8,4.97-1.97
				C130.25,250.18,131.13,252.41,130.31,254.33z"/>
		</g>
		<g>
			<path class="st2" d="M91.87,241.39c1.31,1.83,1.16,13.88,2.46,12.93c1.3-0.95,2.41-21.77,2.41-21.77s10.81-5.81,12.85-13.39
				c0,0,6.08,21.12,24.85,21.94c0,0,0.1-32.57-24.79-31.56s-24.71,22.9-24.71,22.9L91.87,241.39z"/>
		</g>
		<g>
			<g>
				<path class="st7" d="M99.6,251.64l-7.3-9.13l-2.37-2.72c0,0,3.06,1.53,11.74,12.14L99.6,251.64z"/>
			</g>
			<g>
				<polygon class="st7" points="90.5,251.46 96.29,260.88 94.82,261.67 89.34,251.68 				"/>
			</g>
			<g>
				<path class="st7" d="M132.37,253.58c0,0-10.76-3.83-13.55-4.1c-2.43-0.23-16.13,1.67-19.22,2.15
					c-1.76,3.21-4.78,10.03-4.78,10.03c2.46,5.92,8.04,12.96,18.49,13.02C132.21,274.81,132.37,253.58,132.37,253.58z"/>
			</g>
			<g>
				<path class="st12" d="M105.89,256.34c-0.17-0.03-0.32-0.16-0.37-0.34c-0.07-0.25,0.08-0.51,0.34-0.58l0.47-0.12
					c0.25-0.06,0.51,0.09,0.58,0.35c0.06,0.25-0.09,0.51-0.35,0.58l-0.45,0.12C106.03,256.35,105.96,256.35,105.89,256.34z
					 M109.4,255.64c0.32-0.05,0.63-0.1,0.95-0.14c0.26-0.03,0.44-0.27,0.41-0.53c-0.03-0.26-0.27-0.44-0.53-0.41
					c-0.33,0.04-0.66,0.09-0.98,0.14c-0.26,0.04-0.43,0.29-0.39,0.55c0.03,0.2,0.19,0.35,0.37,0.39
					C109.28,255.64,109.34,255.64,109.4,255.64z M113.24,255.25c0.32-0.01,0.64-0.03,0.96-0.03c0.26-0.01,0.47-0.22,0.47-0.48
					c0-0.26-0.22-0.47-0.48-0.47c-0.33,0.01-0.66,0.01-0.99,0.03c-0.26,0.01-0.46,0.23-0.45,0.49c0.01,0.22,0.17,0.4,0.38,0.44
					C113.16,255.24,113.2,255.25,113.24,255.25z M117.1,255.3c0.32,0.02,0.64,0.05,0.96,0.08c0.26,0.03,0.49-0.16,0.52-0.42
					c0.03-0.26-0.16-0.49-0.43-0.52c-0.33-0.03-0.66-0.06-0.99-0.08c-0.26-0.02-0.49,0.18-0.51,0.44c-0.02,0.24,0.15,0.45,0.38,0.5
					C117.06,255.29,117.08,255.29,117.1,255.3z M126.21,256.68c0.08-0.25-0.05-0.52-0.3-0.6c-0.31-0.11-0.63-0.21-0.95-0.3
					c-0.26-0.07-0.51,0.07-0.59,0.32c-0.08,0.25,0.06,0.52,0.32,0.59c0.31,0.09,0.61,0.19,0.92,0.29c0.02,0.01,0.04,0.01,0.06,0.02
					C125.9,257.04,126.13,256.91,126.21,256.68z M120.94,255.77l0.54,0.1l0.41,0.08c0,0,0,0,0,0c0.25,0.05,0.51-0.11,0.56-0.37
					c0.05-0.26-0.11-0.51-0.37-0.56l-0.42-0.08l-0.56-0.11c-0.26-0.05-0.51,0.13-0.55,0.38c-0.05,0.25,0.12,0.5,0.37,0.55
					C120.93,255.77,120.93,255.77,120.94,255.77z M129.38,257.97c0.11-0.24,0-0.52-0.24-0.63l-0.44-0.2c-0.24-0.1-0.52,0-0.63,0.25
					c-0.1,0.24,0.01,0.52,0.25,0.62l0.43,0.19c0.03,0.01,0.07,0.03,0.1,0.03C129.06,258.28,129.28,258.18,129.38,257.97z
					 M106.22,260.41l0.47-0.05c0.26-0.03,0.45-0.26,0.42-0.52c-0.03-0.26-0.26-0.45-0.52-0.42l-0.48,0.05
					c-0.26,0.03-0.45,0.27-0.42,0.53c0.03,0.21,0.18,0.37,0.38,0.41C106.12,260.42,106.17,260.42,106.22,260.41z M109.35,260.15
					c0.3-0.02,0.59-0.03,0.89-0.04c0.26-0.01,0.47-0.23,0.46-0.49c-0.01-0.26-0.23-0.47-0.49-0.46c-0.3,0.01-0.6,0.03-0.91,0.04
					c-0.26,0.01-0.46,0.24-0.45,0.5c0.01,0.22,0.17,0.4,0.38,0.44C109.27,260.15,109.31,260.15,109.35,260.15z M112.91,260.08
					c0.3,0.01,0.59,0.01,0.89,0.02c0.26,0.01,0.48-0.2,0.49-0.46c0.01-0.26-0.2-0.49-0.46-0.49c-0.3-0.01-0.6-0.01-0.91-0.02
					c-0.26,0-0.48,0.21-0.48,0.47c0,0.23,0.16,0.43,0.38,0.47C112.85,260.07,112.88,260.07,112.91,260.08z M116.47,260.24
					c0.3,0.02,0.59,0.05,0.89,0.08c0.26,0.03,0.49-0.16,0.52-0.43c0.03-0.26-0.17-0.5-0.43-0.52c-0.3-0.03-0.6-0.06-0.9-0.08
					c-0.26-0.02-0.49,0.18-0.51,0.44c-0.02,0.24,0.15,0.46,0.38,0.5C116.43,260.23,116.45,260.23,116.47,260.24z M120,260.62
					c0.29,0.04,0.59,0.09,0.88,0.13c0.26,0.04,0.5-0.13,0.54-0.39c0.04-0.26-0.13-0.55-0.39-0.54c-0.3-0.05-0.6-0.09-0.89-0.14
					c-0.26-0.04-0.5,0.14-0.54,0.4c-0.04,0.25,0.13,0.48,0.38,0.53C119.99,260.62,120,260.62,120,260.62z M124.95,261.08
					c0.06-0.25-0.1-0.51-0.36-0.57c-0.29-0.07-0.59-0.13-0.89-0.2c0,0,0,0-0.01,0c-0.25-0.05-0.5,0.11-0.56,0.37
					c-0.05,0.26,0.11,0.51,0.37,0.56c0.29,0.06,0.58,0.13,0.87,0.19c0,0,0.01,0,0.01,0C124.64,261.49,124.89,261.33,124.95,261.08z
					 M128.01,261.91c0.07-0.25-0.07-0.51-0.32-0.59l-0.46-0.13c-0.26-0.07-0.51,0.08-0.59,0.33c-0.07,0.25,0.08,0.51,0.33,0.59
					l0.45,0.13c0.01,0,0.03,0.01,0.04,0.01C127.7,262.29,127.94,262.15,128.01,261.91z M108.3,265.09l0.47-0.03
					c0.26-0.02,0.46-0.24,0.44-0.5s-0.25-0.46-0.5-0.44l-0.48,0.03c-0.26,0.02-0.46,0.25-0.44,0.51c0.02,0.22,0.18,0.39,0.38,0.43
					C108.21,265.09,108.26,265.1,108.3,265.09z M111.87,264.97c0.35,0,0.69,0.01,1.04,0.01c0.26,0.01,0.48-0.2,0.48-0.46
					c0.01-0.26-0.2-0.48-0.46-0.48c-0.35-0.01-0.7-0.01-1.05-0.01c-0.26,0-0.48,0.21-0.48,0.47c0,0.23,0.16,0.42,0.38,0.47
					C111.81,264.96,111.84,264.97,111.87,264.97z M116.01,265.14c0.34,0.03,0.69,0.06,1.03,0.1c0.26,0.03,0.49-0.16,0.52-0.42
					c0.03-0.26-0.16-0.48-0.42-0.52c-0.35-0.04-0.7-0.07-1.05-0.1c-0.26-0.02-0.49,0.17-0.51,0.43c-0.02,0.24,0.15,0.46,0.38,0.51
					C115.98,265.14,115.99,265.14,116.01,265.14z M120.12,265.67c0.34,0.06,0.68,0.12,1.02,0.19c0.26,0.05,0.51-0.12,0.56-0.38
					s-0.12-0.5-0.37-0.56h0c-0.35-0.07-0.69-0.13-1.04-0.19c-0.26-0.04-0.5,0.13-0.55,0.39c-0.04,0.25,0.12,0.49,0.37,0.55
					C120.11,265.67,120.11,265.67,120.12,265.67z M125.2,266.34c0.07-0.25-0.08-0.51-0.33-0.58l-0.46-0.12
					c-0.25-0.04-0.51,0.09-0.58,0.34c-0.07,0.25,0.08,0.51,0.34,0.58l0.45,0.12c0.01,0,0.02,0.01,0.03,0.01
					C124.89,266.72,125.13,266.58,125.2,266.34z"/>
			</g>
		</g>
	</g>
	<g>
		<polygon class="st2" points="145.89,234.87 143.2,211 151.45,237.59 		"/>
	</g>
	<g>
		<path class="st5" d="M62.61,193.74c-9.08,6.48-57.85,61.08-55.54,87.85c2.31,26.77,51.64,75.15,61.8,63.33l12.35-16.89
			c0,0,3.74-5.15-1.66-10.5c-5.4-5.36-36.28-37.69-36.28-37.69l26.47-41.15L62.61,193.74z"/>
	</g>
	<g>
		<path class="st17" d="M70.96,229.23c-0.02,0-0.03,0-0.05,0c-0.41-0.03-0.71-0.37-0.69-0.78c0.61-9.68-0.75-19.65-3.92-28.82
			c-0.13-0.38,0.07-0.8,0.46-0.94c0.38-0.13,0.8,0.07,0.94,0.46c3.23,9.36,4.61,19.52,3.99,29.4
			C71.67,228.93,71.35,229.23,70.96,229.23z"/>
	</g>
	<g>
		<path class="st0" d="M85.06,332.67c0,0,24.41,7.97,25.89,11.02c1.48,3.04-12.98,0-12.98,0s19.12,13.27,18.92,15.78
			c-0.2,2.51-19.8-8.64-19.8-8.64s17.48,11.97,17.15,14.1c-0.33,2.13-20.11-9.21-20.11-9.21s18.02,12.49,16.44,13.8
			c-1.58,1.31-19.05-8.65-19.05-8.65s13.7,16.91,12.55,18.39c-1.15,1.48-14.61-14.17-20.09-19.09s-9.3-12.57-9.3-12.57L85.06,332.67
			z"/>
	</g>
	<g>
		<path class="st14" d="M68.87,344.93c0,0,3.21,4.13,5.21,4.07c2-0.06,12.03-15.64,12.58-16.98c0.55-1.34-5.44-3.98-5.44-3.98
			L68.87,344.93z"/>
	</g>
	<g>
		<g>
			<path class="st4" d="M248.4,193.74c7.05,8.64,39.69,74.18,30.4,99.4s-69.64,58.86-76.32,44.79l-7.46-19.55
				c0,0-2.25-5.95,4.37-9.69c6.62-3.74,44.94-26.79,44.94-26.79l-14.68-46.68L248.4,193.74z"/>
		</g>
		<g>
			<path class="st6" d="M218.45,136.66c0,0,21.33,9.1,24.7,16.05c3.37,6.95-3.84,14.45-3.84,14.45s9.33,3.14,9.76,12.23
				c0.42,9.08-7.58,14.36-7.58,14.36s4.8,5.53,3.93,11.85c-0.87,6.32-7.49,10.24-13.64,8.35c-6.16-1.89-16.52-9.72-9.86-20.64
				c0,0-13.54-1.76-6.62-13.54c0,0-11.85-13.06-6.08-21.92C216.94,146,218.45,136.66,218.45,136.66z"/>
		</g>
		<g>
			<path class="st3" d="M241.09,272.34c-0.27,0-0.53-0.15-0.66-0.41c-2.59-5.33-4.34-13.97-5.88-21.59
				c-0.56-2.79-1.1-5.43-1.62-7.57c-1.5-6.26-2.5-15.53,1.28-24.16c0.16-0.37,0.6-0.54,0.97-0.38c0.37,0.16,0.54,0.6,0.38,0.97
				c-3.62,8.26-2.65,17.19-1.2,23.23c0.52,2.17,1.06,4.82,1.63,7.63c1.45,7.16,3.25,16.08,5.76,21.24c0.18,0.37,0.03,0.8-0.34,0.98
				C241.31,272.31,241.2,272.34,241.09,272.34z"/>
		</g>
		<g>
			<path class="st0" d="M192.58,323.99c0,0-18.6,0.91-20.22,2.76c-1.62,1.85,9.08,2.48,9.08,2.48s-15.92,5.63-16.26,7.42
				s15.51-2.26,15.51-2.26s-14.52,5.03-14.69,6.59c-0.18,1.55,15.83-2.59,15.83-2.59s-15,5.29-14.14,6.51
				c0.86,1.22,14.98-2.4,14.98-2.4s-11.3,3.66-10.78,4.91c0.52,1.25,11.41-1.56,16.19-3.96c4.78-2.39,8.91-7.02,8.91-7.02
				L192.58,323.99z"/>
		</g>
		<g>
			<path class="st3" d="M202.48,337.92c0,0-4.19,3.14-6.1,2.55c-1.91-0.58-7.48-18.26-7.66-19.7c-0.18-1.44,6.3-2.4,6.3-2.4
				L202.48,337.92z"/>
		</g>
	</g>
	<g>
		<polygon class="st2" points="151.56,346.95 141.22,349.95 141.35,351.32 151.84,350.19 		"/>
	</g>
	<g>
		<g>
			<path class="st2" d="M220.4,275.61c3.82,3.99,10.55,4.75,15.16,1.72c6.1-4,6.52-12.87,2-18.23c-5.91-7.01-16.97-4.14-19.76,4.32
				C216.45,267.54,217.38,272.44,220.4,275.61z"/>
		</g>
		<g>
			<path class="st2" d="M260.34,272.3c0.26-3.5-23.01-8.11-26.53-3.99c-3.52,4.11,4.53,25,7.87,24.8c3.35-0.2,1.34-11.38,1.34-11.38
				s3.26,4.77,7.92,3.15c4.66-1.62-3.82-9.58-3.82-9.58S260.04,276.39,260.34,272.3z"/>
		</g>
	</g>
</g>
<g>
	<path class="st0" d="M39.49,204.61c0,0-8.75,9.42-9.75,13.41c-1.01,3.99,1.85,15.03,4.08,13.92c2.23-1.1,1.98-9.43,1.98-9.43
		l9.15-10.56L39.49,204.61z"/>
</g>
</svg>
