<?xml version="1.0" encoding="utf-8"?>
<!-- Generator: Adobe Illustrator 25.0.0, SVG Export Plug-In . SVG Version: 6.00 Build 0)  -->
<svg version="1.1" id="Camada_1" xmlns="http://www.w3.org/2000/svg" xmlns:xlink="http://www.w3.org/1999/xlink" x="0px" y="0px"
	 viewBox="0 0 1280 1024" style="enable-background:new 0 0 1280 1024;" xml:space="preserve">
<style type="text/css">
	.st0{fill:#2C69A9;}
	.st1{fill:#FAA18B;}
	.st2{fill:#292C43;}
	.st3{fill:#34374C;}
	.st4{fill:#E5E6E8;}
	.st5{fill:#95B4D4;}
	.st6{fill:#6B96C2;}
	.st7{fill:#C6D7E8;}
	.st8{fill:#4B80B5;}
	.st9{fill:#6995C2;}
	.st10{fill:#5D2C22;}
	.st11{fill:#D08D7C;}
	.st12{fill:#FFB848;}
	.st13{fill:#C0D2E5;}
	.st14{fill:#DDE7F1;}
	.st15{fill:#FFFFFF;}
	.st16{fill:#CACAD0;}
	.st17{fill:#FAA792;}
	.st18{fill:#00C177;}
	.st19{fill:#66DAAD;}
	.st20{fill:#65372D;}
	.st21{fill:#B14125;}
	.st22{fill:#FFDAA0;}
	.st23{fill:#FFF5E5;}
	.st24{fill:#BBBCC3;}
	.st25{fill:#FFE3B8;}
	.st26{fill:#C87A66;}
	.st27{fill:#FFF1DA;}
	.st28{fill:#C3C4CA;}
	.st29{fill:#3E4156;}
	.st30{fill:#545668;}
	.st31{fill:#333333;}
	.st32{fill:#FDD0C5;}
	.st33{fill:#F0F0F0;}
	.st34{fill:#F7623D;}
	.st35{fill:#1A1A1A;stroke:#1A1A1A;stroke-miterlimit:10;}
	.st36{fill:#BFC0C7;stroke:#1A1A1A;stroke-miterlimit:10;}
</style>
<g>
	<path class="st0" d="M676.82,558.27c0,0-31.75,9.98-43.08,19.95s-14.51,29.48-16.78,50.34c-2.27,20.86,2.72,112.47,2.72,112.47
		H777.5c0,0,4.54-142.86-2.27-153.74c-6.35-10.16-16.78-16.78-32.65-21.77c-15.87-4.99-29.48-9.07-29.48-9.07L676.82,558.27z"/>
	<path class="st1" d="M681.5,539.24l0.17,20.17c0,0,0.12,7.24,15.28,7.77c11.57,3.19,17.75-6.04,17.75-6.04l-1.39-24.51
		L681.5,539.24z"/>
	<path class="st1" d="M684.98,459.26c0,0-15.82,3.65-19.82,16.86c-4,13.21-4.17,48.85,6.61,59.81
		c10.78,10.95,23.99,10.95,33.21,8.87c9.21-2.09,17.91-8.17,21.91-19.65c4-11.47,3.13-45.55,0.52-52.68
		C724.79,465.35,698.19,452.48,684.98,459.26z"/>
	<path class="st2" d="M721.03,478.4c0,0,4.08,8.16,5.1,15.14c1.02,6.97,1.53,14.29,1.53,14.29c0.52,0.59,5.81-10.45,6.8-19.9
		c1.02-9.69-1.7-17.35-6.8-23.47C722.56,458.33,721.03,478.4,721.03,478.4z"/>
	<g>
		<path class="st1" d="M726.29,507.38c0,0,4-8.27,9.91-8.47c5.91-0.21,3.65,15.92-2.26,18.6c-5.91,2.69-8.17-3.31-8.17-3.31
			L726.29,507.38z"/>
		<path class="st1" d="M665.98,507.38c0,0-4-8.27-9.91-8.47c-5.91-0.21-3.65,15.92,2.26,18.6c5.91,2.69,8.17-3.31,8.17-3.31
			L665.98,507.38z"/>
	</g>
	<path class="st3" d="M680.13,497.95c-1.47,1.61-1.58,4.3-0.24,6.02c0.62,0.79,1.61,1.4,2.59,1.19c1.95-0.41,3.3-3.87,2.8-5.67
		C684.64,497.16,681.83,496.1,680.13,497.95z"/>
	<path class="st3" d="M707.16,497.95c-1.47,1.61-1.58,4.3-0.24,6.02c0.62,0.79,1.61,1.4,2.59,1.19c1.95-0.41,3.3-3.87,2.8-5.67
		C711.67,497.16,708.85,496.1,707.16,497.95z"/>
	<path class="st2" d="M662.02,507.82c0,0,6.46-11.73,9.86-21.94c3.4-10.2,5.1-19.22,5.1-19.22s5.3,10.23,11.22,14.12
		c4.93,3.23,9.13,3.91,9.13,3.91l-5.67-16.1c0,0,8.83,12.3,17.23,17.46c9.41,5.78,17.4,5.44,17.4,5.44s-7.54-7.14-10.37-11.22
		c-2-2.88-3.74-6.46-3.74-6.46s11.56,8.84,15.65,10.88c4.08,2.04,4.76,0.68,4.76,0.68s4.25-10.54-6.12-24.49
		c-10.37-13.95-21.54-15.7-30.73-11.45c-9.18,4.25-18.76,11.62-18.76,11.62s-9.86-9.69-19.56-3.74c-9.69,5.95-6.79,24.32-4.93,31.12
		C655.56,499.65,662.02,507.82,662.02,507.82z"/>
	<g>
		<path class="st2" d="M677.37,495.25c0.12-0.14,0.25-0.25,0.39-0.37c0.06-0.06,0.13-0.11,0.19-0.17c-0.3,0.27-0.1,0.08-0.01,0.02
			c0.38-0.22,0.75-0.47,1.15-0.67c0.14-0.07,0.28-0.13,0.41-0.19c-0.24,0.11-0.19,0.08,0.02-0.01c0.23-0.09,0.45-0.18,0.68-0.27
			c0.55-0.19,1.1-0.35,1.67-0.48c0.28-0.06,0.56-0.12,0.84-0.16c0.06-0.01,0.13-0.02,0.19-0.03c0.15-0.02,0.09-0.01-0.19,0.02
			c0.05-0.05,0.36-0.05,0.44-0.06c0.53-0.07,1.06-0.11,1.6-0.11c0.47,0,0.95,0.04,1.42,0.09c0.35,0.03,0.65,0.06,1-0.03
			c0.2-0.05,0.38-0.12,0.56-0.21c0.14-0.07,0.06-0.04-0.22,0.08c0.18-0.04,0.34-0.12,0.47-0.24c-0.22,0.06-0.43,0.12-0.65,0.18
			c0.02,0,0.05,0,0.07,0c0.99-0.04,1.49-1.02,1.07-1.87c-0.01-0.02-0.02-0.04-0.03-0.07c0.06,0.22,0.12,0.43,0.18,0.65
			c0.02-0.18,0-0.35-0.05-0.52c-0.19-0.45-0.21-0.48-0.04-0.1c-0.17-0.34-0.24-0.59-0.51-0.87c-0.33-0.34-0.76-0.56-1.21-0.71
			c-0.64-0.21-1.34-0.26-2.02-0.26c-1.35,0.01-2.71,0.25-3.99,0.66c-2.2,0.71-5.44,2.1-5.55,4.82
			C675.24,495.41,676.67,496.05,677.37,495.25L677.37,495.25z"/>
	</g>
	<g>
		<path class="st2" d="M714.51,495.25c-0.12-0.14-0.25-0.25-0.39-0.37c-0.06-0.06-0.13-0.11-0.19-0.17c0.3,0.27,0.1,0.08,0.01,0.02
			c-0.38-0.22-0.75-0.47-1.15-0.67c-0.14-0.07-0.28-0.13-0.41-0.19c0.24,0.11,0.19,0.08-0.02-0.01c-0.23-0.09-0.45-0.18-0.68-0.27
			c-0.55-0.19-1.1-0.35-1.67-0.48c-0.28-0.06-0.56-0.12-0.84-0.16c-0.06-0.01-0.13-0.02-0.19-0.03c-0.15-0.02-0.09-0.01,0.19,0.02
			c-0.05-0.05-0.36-0.05-0.44-0.06c-0.53-0.07-1.06-0.11-1.6-0.11c-0.47,0-0.95,0.04-1.42,0.09c-0.35,0.03-0.65,0.06-1-0.03
			c-0.2-0.05-0.38-0.12-0.56-0.21c-0.14-0.07-0.06-0.04,0.22,0.08c-0.18-0.04-0.34-0.12-0.47-0.24c0.22,0.06,0.43,0.12,0.65,0.18
			c-0.02,0-0.05,0-0.07,0c-0.99-0.04-1.49-1.02-1.07-1.87c0.01-0.02,0.02-0.04,0.03-0.07c-0.06,0.22-0.12,0.43-0.18,0.65
			c-0.02-0.18,0-0.35,0.05-0.52c0.19-0.45,0.21-0.48,0.04-0.1c0.17-0.34,0.24-0.59,0.51-0.87c0.33-0.34,0.76-0.56,1.21-0.71
			c0.64-0.21,1.34-0.26,2.02-0.26c1.35,0.01,2.71,0.25,3.99,0.66c2.2,0.71,5.44,2.1,5.55,4.82
			C716.64,495.41,715.21,496.05,714.51,495.25L714.51,495.25z"/>
	</g>
	<g>
		<path class="st4" d="M655.64,499.2c-0.14,0.01-0.01,0.01,0.09,0.1c0.18,0.17,0.38,0.29,0.59,0.43c0.54,0.35,1.06,0.74,1.58,1.11
			c1.32,0.94,2.61,1.92,3.97,2.81c1.56,1.02,3.25,1.88,4.87,2.78c0.92,0.51,1.85,0.9,2.83,1.27c0.82,0.31,1.83,1.03,2.71,0.64
			c0.15-0.07,0.23-0.26,0.23-0.41c0-1.05-1.32-1.42-2.12-1.72c-1.12-0.43-2.16-0.89-3.22-1.46c-1.71-0.92-3.45-1.62-5.06-2.72
			c-1.37-0.93-2.68-1.96-4.06-2.89c-0.61-0.41-1.88-1.41-2.67-0.84C655.04,498.56,655.12,499.23,655.64,499.2L655.64,499.2z"/>
	</g>
	<path class="st4" d="M673.35,535.47c-0.81-0.74-1.56-1.53-2.27-2.36c-1.41-1.65-2.63-3.45-3.75-5.31
		c-1.86-3.11-3.64-6.36-5.17-9.68c-0.55,0.1-1.16,0.12-1.83,0.02c0.48,1.59,1.18,3.1,1.95,4.6c1.06,2.05,2.13,4.1,3.31,6.08
		c1.11,1.86,2.33,3.66,3.71,5.34c0.73,0.89,1.51,1.74,2.35,2.53c0.69,0.66,1.52,1.54,2.56,1.41c0.27-0.04,0.6-0.23,0.56-0.56
		C674.66,536.59,674.01,536.08,673.35,535.47z"/>
	<g>
		<path class="st4" d="M734.8,498.3c-0.77-0.55-2,0.4-2.6,0.8c-1.41,0.94-2.73,1.99-4.13,2.94c-1.57,1.07-3.25,1.76-4.92,2.64
			c-1.11,0.59-2.18,1.08-3.36,1.53c-0.8,0.3-2.12,0.67-2.12,1.72c0,0.15,0.09,0.34,0.23,0.41c0.85,0.38,1.8-0.29,2.58-0.59
			c1.02-0.39,2-0.79,2.96-1.32c1.63-0.9,3.32-1.75,4.87-2.78c1.35-0.89,2.65-1.87,3.97-2.81c0.51-0.36,1.01-0.73,1.53-1.08
			c0.21-0.14,0.42-0.27,0.61-0.43c0.11-0.1,0.25-0.12,0.13-0.13C735.07,499.23,735.15,498.56,734.8,498.3L734.8,498.3z"/>
	</g>
	<path class="st4" d="M718.49,535.47c0.81-0.74,1.56-1.53,2.27-2.36c1.41-1.65,2.63-3.45,3.75-5.31c1.86-3.11,3.64-6.36,5.17-9.68
		c0.55,0.1,1.16,0.12,1.83,0.02c-0.48,1.59-1.18,3.1-1.95,4.6c-1.06,2.05-2.13,4.1-3.31,6.08c-1.11,1.86-2.33,3.66-3.71,5.34
		c-0.73,0.89-1.51,1.74-2.35,2.53c-0.69,0.66-1.52,1.54-2.56,1.41c-0.27-0.04-0.6-0.23-0.56-0.56
		C717.18,536.59,717.83,536.08,718.49,535.47z"/>
	<path class="st5" d="M669.76,504.27c0,0,0.07,13.38,1.04,21.38c0.97,8.01,2.27,12.62,2.27,12.62s6.89,6.93,19.28,7.18
		s18.43-1.5,24.18-5.25c5.04-3.29,6.03-5.37,6.03-5.37l0.05-30.41c0,0-13.17,3.14-26.76,2.89
		C682.26,507.04,669.76,504.27,669.76,504.27z"/>
	<g>
		<path class="st6" d="M670.37,517.69c2.85,1.13,5.92,1.7,8.9,2.36c1.63,0.36,3.27,0.71,4.92,0.96c1.23,0.19,2.5,0.45,3.69-0.03
			c0.19-0.08,0.24-0.32,0.06-0.44c-1.07-0.69-2.33-0.78-3.56-0.97c-1.63-0.25-3.26-0.46-4.89-0.73c-2.97-0.48-6.01-1.07-8.87-2.02
			C670.05,516.63,669.84,517.48,670.37,517.69L670.37,517.69z"/>
	</g>
	<g>
		<path class="st6" d="M671.45,527.71c0.37,0.45,0.92,0.78,1.42,1.08c0.95,0.57,1.95,1.06,2.96,1.5c1.42,0.62,2.88,1.08,4.38,1.47
			c0.9,0.23,1.81,0.43,2.73,0.59c0.88,0.16,1.99,0.44,2.82-0.01c0.25-0.13,0.28-0.49,0.09-0.68c-0.62-0.61-1.67-0.69-2.49-0.85
			c-0.88-0.17-1.75-0.35-2.62-0.55c-1.45-0.33-2.9-0.72-4.33-1.13c-1.02-0.29-2.03-0.62-2.99-1.07c-0.49-0.23-1.05-0.48-1.44-0.88
			C671.64,526.83,671.15,527.34,671.45,527.71L671.45,527.71z"/>
	</g>
	<g>
		<path class="st6" d="M721.83,517.46c-2.15,0.95-4.59,1.48-6.9,1.86c-1.43,0.23-2.86,0.39-4.3,0.56c-1.29,0.15-2.79,0.11-3.89,0.89
			c-0.14,0.1-0.17,0.32,0,0.42c1.22,0.65,2.71,0.32,4.01,0.15c1.51-0.21,3.01-0.52,4.49-0.86c2.39-0.55,4.84-1.08,7.04-2.22
			C722.81,517.97,722.35,517.23,721.83,517.46L721.83,517.46z"/>
	</g>
	<path class="st7" d="M695.85,507.3c-13.6-0.26-26.09-3.03-26.09-3.03s0.07,13.38,1.04,21.38c0.97,8.01,2.27,12.62,2.27,12.62
		s0.46,0.46,1.33,1.13c-0.68-4.83-2.86-20.59-2.86-24.6c0-4.76,0-7.48,0-7.48s14.46,2.38,27.38,1.87
		c12.93-0.51,21.43-2.21,21.43-2.21s0.68,9.35,0.51,17.52c-0.11,5.44-0.23,10.11-0.29,12.63c1.58-1.46,1.98-2.3,1.98-2.3l0.05-30.41
		C722.61,504.41,709.45,507.55,695.85,507.3z"/>
	<g>
		<path class="st6" d="M722.32,527.18c-0.4,0.4-0.98,0.64-1.48,0.87c-0.93,0.43-1.92,0.76-2.9,1.06c-1.25,0.38-2.49,0.8-3.75,1.13
			c-0.74,0.2-1.48,0.39-2.23,0.57c-0.65,0.15-1.56,0.31-2,0.85c-0.17,0.21-0.17,0.53,0.09,0.68c0.64,0.38,1.54,0.17,2.22,0.03
			c0.79-0.17,1.57-0.36,2.34-0.59c1.34-0.4,2.67-0.85,3.94-1.45c0.96-0.45,1.91-0.95,2.82-1.5c0.52-0.31,1.1-0.65,1.49-1.12
			C723.15,527.34,722.67,526.83,722.32,527.18L722.32,527.18z"/>
	</g>
	<g>
		<path class="st8" d="M696.84,567.44c-0.44,8.38-0.06,16.83-0.02,25.22c0.07,13.64,0.11,27.29,0.22,40.93
			c0.12,15.1,0.24,30.21,0.36,45.31c0.11,13.03,0.22,26.05,0.29,39.08c0.03,4.55,0.06,9.1,0.12,13.65c0.04,2.61-0.09,5.27,0.18,7.87
			c0.02,0.16,0.03,0.33,0.05,0.49c0.02,0.13,0.03,0.26,0.05,0.39c0.1,0.67-0.01-0.47-0.01-0.04c0,1.04,1.62,1.04,1.62,0
			c0-0.43-0.11,0.7-0.01,0.04c0.02-0.13,0.03-0.26,0.05-0.39c0.03-0.18,0.03-0.36,0.05-0.54c0.04-0.46,0.08-0.91,0.08-1.37
			c0-1.33,0-2.66-0.01-3.99c-0.01-4.13-0.03-8.26-0.07-12.39c-0.15-12.52-0.28-25.04-0.4-37.56c-0.15-15.04-0.3-30.08-0.45-45.12
			c-0.14-14.02-0.32-28.05-0.47-42.07c-0.06-5.45-0.11-10.89-0.12-16.34c-0.01-3.78,0.08-7.58-0.12-11.36
			c-0.03-0.61-0.07-1.22-0.1-1.83C698.09,566.61,696.89,566.61,696.84,567.44L696.84,567.44z"/>
	</g>
	<path class="st9" d="M697.24,566.47l9.28,15.04c0,0,4.37-2.64,10.2-9.64c6.8-8.16,6.73-12.77,6.73-12.77s-1.34-2.68-4.13-5.02
		c-2.3-1.93-4.57-2.57-4.57-2.57s-1.45,3.9-8.37,9.37C702.38,564.07,697.24,566.47,697.24,566.47z"/>
	<path class="st9" d="M696.81,566.47l-8.43,16.17c0,0-5.42-3.29-11.22-10.32c-5.8-7.03-6.29-12.81-6.29-12.81s1-1.68,3.74-4.08
		c2.72-2.38,5.78-4.08,5.78-4.08s0.36,4.07,7.28,9.54C691.67,564.07,696.81,566.47,696.81,566.47z"/>
</g>
<g>
	<g>
		<path class="st10" d="M456.81,535.92c0,0-9.52-5.67-13.83,6.8c-4.31,12.47-0.91,21.54-6.58,28.34
			c-5.67,6.8-17.91,7.26-18.82,21.54c-0.91,14.29,8.62,28.12,36.28,34.69c27.66,6.58,54.2,2.04,68.25-2.72
			c14.06-4.76,22-22.45,22-32.2c0-9.75-9.52-10.43-10.2-19.5c-0.68-9.07,0.91-14.74-3.17-23.58c-2.95-6.4-6.35-12.47-17.69-14.97
			C501.71,531.84,463.84,530.02,456.81,535.92z"/>
		<path class="st11" d="M525.07,672.43c0,0,6.03,36.61,8.39,47.62c2.66,12.42,6.63,21.09,6.63,21.09h25.2c0,0-4-8.5-8.08-25.51
			c-4.08-17.01-8.16-47.11-8.16-47.11L525.07,672.43z"/>
		<path class="st12" d="M526.73,678.2c0.85-0.34,1.7-0.67,2.55-0.98c7.23-2.67,14.79-4.6,22.46-5.43c0.02,0,0.03,0,0.05,0
			c-0.44-4.33-0.88-8.82-1.21-12.63c-1.02-11.73-0.51-40.99-3.74-49.49c-3.23-8.5-24.15-12.93-24.15-12.93s-0.51,60.54,2.38,72.79
			C525.77,672.52,526.31,675.46,526.73,678.2z"/>
		<path class="st12" d="M474.73,592.38c0,0-25.85,7.26-27.44,8.62c-1.59,1.36-2.27,66.89-1.13,84.81
			c1.13,17.91-0.45,54.65-0.45,54.65h87.76c0,0-4.76-31.75-6.58-39.91c-1.81-8.16-1.81-12.7,4.08-22.68c5.9-9.98,11.79-22.9,7.03-39
			s-9.07-25.4-9.75-31.29c-0.68-5.9,0.23-9.3,0.23-9.3s-26.08-7.71-31.52-7.48C491.51,591.02,477.68,590.79,474.73,592.38z"/>
		<path class="st11" d="M477.28,571.07c0,0,0.6,17.94,0.08,19.3c-0.51,1.36-12.67,4.85-12.67,4.85s10.54,32.14,30.61,32.31
			c20.07,0.17,21.09-15.82,21.94-20.75c0.85-4.93,0.26-11.65,0.26-11.65s-9.69-1.87-11.05-4.42c-1.07-2,0.09-15.56,0.09-15.56
			L477.28,571.07z"/>
		<path class="st11" d="M464.98,508.71c-6.01,10.67-3.85,29.71-0.45,48.98c2.03,11.5,10.66,19.95,24.72,22.45
			c14.06,2.49,26.54,1.6,33.79-20.63c6.58-20.18-4.54-52.15-16.1-59.86C504,497.69,472.81,494.79,464.98,508.71z"/>
		<path class="st11" d="M466.39,546.92c0,0-5.78-8.5-11.05-5.78c-5.27,2.72-3.74,13.61,1.36,15.82c5.1,2.21,10.03-3.4,10.03-3.4
			L466.39,546.92z"/>
		<path class="st11" d="M415.2,664.77c0,0-5.33,21.71-7.6,37.13c-2.27,15.42-3.17,39-3.17,39h26.3c0,0,2.76-25.89,4.76-36.28
			c2.66-13.83,8.11-30.67,8.11-30.67L415.2,664.77z"/>
		<path class="st10" d="M462.48,545.56c0,0-8.16-6.63-10.54-20.75c-2.38-14.12,6.29-28.23,21.77-31.97
			c15.48-3.74,28.57,3.97,28.57,3.97s17.01-4.14,24.66,9.13c7.65,13.27-2.21,34.69-2.21,34.69s-0.11-9.81-5.22-18.03
			c-7.15-11.52-10.2-13.1-13.95-15.48c-3.74-2.38-6.12-3.17-6.12-3.17s-2.15,5.33-9.52,13.72c-6.71,7.64-18.08,11.56-18.08,11.56
			s-1.19,4.76-3.4,9.01C466.22,542.5,462.48,545.56,462.48,545.56z"/>
		<g>
			<g>
				<path class="st10" d="M492.19,529.35c-2.06-1.28-4.39-1.81-6.78-1.29c-1.08,0.23-2.15,0.76-3.03,1.43
					c-0.56,0.43-1.11,0.87-1.52,1.45c-0.14,0.2-0.27,0.4-0.39,0.61c-0.14,0.23-0.21,0.46-0.22,0.72c0,0.1,0.07,0.62,0.04,0.37
					c0.06,0.51,0.37,0.87,0.9,0.9c-0.24-0.02,0.23,0.03,0.24,0.03c0.22,0,0.42-0.04,0.62-0.11c0.13-0.05,0.24-0.12,0.37-0.2
					c0.26-0.15-0.35,0.14,0.2-0.1c0.48-0.21,0.92-0.51,1.38-0.76c0.4-0.22,0.82-0.39,1.23-0.58c-0.16,0.07-0.13,0.05,0.02-0.01
					c0.12-0.05,0.24-0.09,0.37-0.13c0.22-0.07,0.45-0.13,0.67-0.2c0.2-0.06,0.39-0.12,0.6-0.17c0.12-0.03,0.25-0.06,0.38-0.08
					c0.03-0.01,0.35-0.06,0.15-0.03c-0.19,0.03,0.13-0.01,0.16-0.01c0.13-0.01,0.26-0.02,0.39-0.02c0.21-0.01,0.42-0.02,0.63-0.03
					c0.99-0.02,1.67,0.12,2.66,0.48c0.57,0.21,1.25-0.19,1.47-0.72C492.93,530.32,492.73,529.68,492.19,529.35L492.19,529.35z"/>
			</g>
		</g>
		<g>
			<g>
				<path class="st10" d="M509.2,531.45c0.94-0.25,1.6-0.39,2.48-0.45c0.21-0.02,0.44-0.01,0.64-0.07c0.22-0.08-0.24,0.02-0.01,0
					c0.18-0.02,0.36-0.04,0.54-0.05c0.2-0.01,0.4-0.01,0.6-0.01c0.09,0,0.18,0.01,0.26,0.01c0.06,0,0.44,0.02,0.16,0.01
					c-0.25-0.01,0.04,0.01,0.09,0.02c0.2,0.03,0.4,0.06,0.6,0.08c0.25,0.03-0.32-0.07-0.08-0.01c0.11,0.03,0.22,0.04,0.33,0.06
					c0.39,0.08,0.76,0.2,1.14,0.34c0.41,0.15,0.81,0.31,1.22,0.45c0.29,0.1,0.57,0.14,0.87,0.21c-0.19-0.05,0.14,0.06,0.18,0.07
					c0.19,0.04,0.38,0.07,0.58,0.05c0.72-0.08,1.37-0.68,1.12-1.47c-0.2-0.65-0.63-1.11-1.11-1.51c-0.45-0.37-0.93-0.69-1.45-0.94
					c-0.98-0.46-2.09-0.81-3.18-0.82c-0.97,0-2.06,0.13-2.96,0.51c-0.99,0.42-1.92,0.99-2.83,1.56
					C507.35,530.13,508,531.77,509.2,531.45L509.2,531.45z"/>
			</g>
		</g>
		<path class="st3" d="M486.01,536.06c-1.5,1.58-1.64,4.28-0.33,6.02c0.61,0.8,1.59,1.42,2.57,1.23c1.96-0.38,3.36-3.82,2.89-5.63
			C490.53,535.35,487.73,534.24,486.01,536.06z"/>
		<path class="st3" d="M511.94,535.5c-0.99,1.75-0.68,4.29,0.69,5.67c0.63,0.64,1.55,1.03,2.33,0.68c1.56-0.71,2.18-4.17,1.49-5.77
			C515.58,534.01,513.08,533.49,511.94,535.5z"/>
		<g>
			<path class="st13" d="M452.9,533.89c0.83,1.52,2.22,2.77,3.42,4c1.12,1.14,2.26,2.25,3.38,3.39c2.35,2.37,4.94,4.18,7.76,5.95
				c3.63,2.28,7.52,4.03,11.54,5.53c1.3,0.48,3.94,1.84,5.26,0.89c0.42-0.3,0.48-0.93,0-1.21c-1.02-0.6-2.79-0.95-4.09-1.41
				c-2.06-0.73-4.09-1.55-6.08-2.45c-1.58-0.71-3.14-1.45-4.61-2.37c-2.76-1.74-5.63-3.33-8.02-5.58c-1.22-1.15-2.47-2.28-3.69-3.43
				c-1.39-1.3-2.68-2.84-4.24-3.94C453.13,532.97,452.69,533.51,452.9,533.89L452.9,533.89z"/>
		</g>
		<g>
			<path class="st13" d="M518.2,553.99c2.5-2.42,4.55-5.31,6.33-8.29c0.79-1.33,1.6-2.65,2.19-4.09c0.41-0.99,1.28-3.23-0.07-3.89
				c-0.18-0.09-0.35-0.06-0.5,0.06c-0.46,0.38-0.53,1.02-0.62,1.56c-0.12,0.69-0.36,1.37-0.65,2.01c-0.6,1.32-1.4,2.54-2.07,3.82
				c-0.75,1.44-1.62,2.78-2.49,4.15c-0.9,1.4-1.99,2.7-2.71,4.2C517.41,553.91,517.87,554.31,518.2,553.99L518.2,553.99z"/>
		</g>
		<path class="st14" d="M502.11,540.28c0,0-18.54,0.17-21.09,17.86c-2.55,17.69,9.52,24.66,22.11,23.3
			c12.59-1.36,18.71-16.33,18.37-23.98C521.16,549.81,517.42,540.62,502.11,540.28z"/>
		<g>
			<g>
				<path class="st15" d="M481.08,558.75c0.98,1.26,2.76,1.96,4.19,2.57c1.68,0.71,3.34,1.4,5.11,1.89c3.75,1.04,7.65,1.83,11.55,2
					c3.71,0.17,7.49-0.3,11.08-1.24c1.61-0.42,3.17-0.97,4.67-1.7c1.37-0.67,2.83-1.39,3.67-2.71c0.42-0.66-0.27-1.48-0.99-1.29
					c-1.41,0.36-2.59,1.3-3.89,1.93c-1.37,0.66-2.8,1.2-4.25,1.64c-3.4,1.03-6.96,1.53-10.52,1.53c-3.64,0-7.5-0.26-11.03-1.17
					c-1.7-0.44-3.41-1.09-4.93-1.96c-1.32-0.75-2.75-1.87-4.26-2.15C481.06,558.01,480.83,558.44,481.08,558.75L481.08,558.75z"/>
			</g>
		</g>
		<path class="st12" d="M462.14,618.35c-0.17-9.01-4.2-21.09-4.2-21.09s-19.56,4.14-23.81,9.41c-4.25,5.27-13.66,30.73-17.23,44.33
			c-1.68,6.41-3.1,13.16-4.13,18.51c0.93,0.14,1.86,0.29,2.78,0.45c6.95,1.21,13.83,2.97,20.35,5.67c2.44,1.01,4.83,2.15,7.13,3.46
			c0.91-2.83,1.99-5.86,3.12-8.36c3.06-6.8,8.33-20.92,10.37-24.49C458.57,642.67,462.31,627.36,462.14,618.35z"/>
		<g>
			<path class="st12" d="M525.84,624.18c1.82,9.54,8.68,17.15,11.07,26.49c1.34,5.26,0.99,10.68-0.71,15.81
				c-1.31,3.95-3.3,7.67-5.17,11.38c-1.06,2.1-2.13,4.2-3.19,6.3c-0.86,1.7-1.87,3.34-2.37,5.19c-0.08,0.28,0.28,0.5,0.49,0.29
				c1.22-1.25,1.95-2.8,2.76-4.33c0.98-1.86,1.93-3.73,2.85-5.63c1.78-3.67,3.69-7.36,5.13-11.18c1.88-4.97,2.64-10.29,1.96-15.58
				c-0.63-4.9-2.69-9.24-5.04-13.53c-2.74-5-5.83-9.74-7.1-15.39C526.41,623.56,525.76,623.75,525.84,624.18L525.84,624.18z"/>
		</g>
		<g>
			<path class="st12" d="M450.73,654.56c-1.95,3.66-3.31,7.47-4.62,11.39c-0.61,1.84-1.22,3.68-1.78,5.54
				c-0.72,2.37-1.71,4.96-1.57,7.47c0.02,0.39,0.5,0.51,0.72,0.19c1.38-2.03,1.94-4.67,2.65-6.99c0.58-1.88,1.14-3.76,1.72-5.63
				c1.2-3.88,2.53-7.72,3.94-11.53C452.01,654.39,451.03,653.98,450.73,654.56L450.73,654.56z"/>
		</g>
		<g>
			<path class="st16" d="M525.84,624.18c1.82,9.54,8.68,17.15,11.07,26.49c1.34,5.26,0.99,10.68-0.71,15.81
				c-1.31,3.95-3.3,7.67-5.17,11.38c-1.06,2.1-2.13,4.2-3.19,6.3c-0.86,1.7-1.87,3.34-2.37,5.19c-0.08,0.28,0.28,0.5,0.49,0.29
				c1.22-1.25,1.95-2.8,2.76-4.33c0.98-1.86,1.93-3.73,2.85-5.63c1.78-3.67,3.69-7.36,5.13-11.18c1.88-4.97,2.64-10.29,1.96-15.58
				c-0.63-4.9-2.69-9.24-5.04-13.53c-2.74-5-5.83-9.74-7.1-15.39C526.41,623.56,525.76,623.75,525.84,624.18L525.84,624.18z"/>
		</g>
		<g>
			<path class="st16" d="M450.73,654.56c-1.95,3.66-3.31,7.47-4.62,11.39c-0.61,1.84-1.22,3.68-1.78,5.54
				c-0.72,2.37-1.71,4.96-1.57,7.47c0.02,0.39,0.5,0.51,0.72,0.19c1.38-2.03,1.94-4.67,2.65-6.99c0.58-1.88,1.14-3.76,1.72-5.63
				c1.2-3.88,2.53-7.72,3.94-11.53C452.01,654.39,451.03,653.98,450.73,654.56L450.73,654.56z"/>
		</g>
	</g>
	<g>
		<path class="st16" d="M517.04,683.06c-5.84-1.43-11.78-1.72-17.76-1.09c-2.98,0.31-5.93,0.81-8.85,1.48
			c-2.77,0.64-5.75,1.44-8.23,2.87c-0.49,0.28-0.13,0.92,0.36,0.85c2.7-0.42,5.36-1.25,8.02-1.87c2.93-0.67,5.89-1.23,8.87-1.58
			c5.68-0.68,11.7-0.94,17.31,0.31C517.4,684.16,517.67,683.21,517.04,683.06L517.04,683.06z"/>
	</g>
</g>
<g>
	<g>
		<g>
			<path class="st17" d="M849.45,628.54c0,0-4.42,34.01-16.33,68.37c-4.05,11.7-20.07,44.88-20.07,44.88h25.59
				c0,0,24.75-41.14,30.19-60.19c5.44-19.05,8.5-49.32,8.5-49.32L849.45,628.54z"/>
			<path class="st18" d="M890.94,547.81c0,0-22.22,4.08-32.43,9.52c-10.2,5.44-9.98,24.72-9.52,33.56
				c0.45,8.84-0.68,25.85-0.91,32.2c-0.23,6.35-2.27,17.46-2.27,17.46s9.98-0.23,18.37,1.59c8.39,1.81,13.61,4.54,13.61,4.54
				s10.2-46.03,12.02-58.05S890.94,547.81,890.94,547.81z"/>
			<path class="st19" d="M866,631.77c-6.05-1.39-12.31-2.04-18.53-1.9c-0.68,5.38-1.65,10.69-1.65,10.69s9.98-0.23,18.37,1.59
				c8.39,1.81,13.61,4.54,13.61,4.54s0.95-4.29,2.32-10.58C875.61,634.12,870.77,632.87,866,631.77z"/>
			<path class="st20" d="M946.55,680.84c0,0,5.28,10.12,8.14,24.85c2.86,14.74,1.56,36.09,1.56,36.09h-99c0,0,2.64-44.01,11-64.02
				C876.61,657.75,946.55,680.84,946.55,680.84z"/>
			<path class="st21" d="M930.17,453.25c0,0,0.91-4.31,10.43-6.8c9.52-2.49,15.42,3.4,15.42,11.34c0,7.94-3.17,12.7,1.13,15.87
				c4.31,3.17,13.41,9.84,14.97,24.04c1.81,16.55-7.71,22.68-13.38,25.62c-4.68,2.43-11.05,5.05-11.51,9.13s0.68,10.2-4.93,14.8
				c-4.25,3.48-13.72,6.46-23.02,0.79c-9.3-5.67-18.82-19.27-18.14-33.79c0.68-14.51,21.09-35.15,22.45-40.36
				C924.96,468.67,930.17,453.25,930.17,453.25z"/>
			<path class="st18" d="M871.67,560.96c0,0-9.3,21.32-12.02,35.83c-2.72,14.51-0.68,21.77,5.22,29.48s8.16,13.15,7.71,17.23
				c-0.45,4.08-6.12,39.68-6.35,40.82c-0.23,1.13,14.06,7.03,44.44,6.35c30.39-0.68,40.36-7.71,40.36-7.71s-2.49-21.32-2.27-37.87
				c0.23-16.55,4.54-31.52,4.54-31.52s2.72-53.97-2.49-56.24s-24.26-9.52-31.52-10.88C912.03,545.09,878.7,548.95,871.67,560.96z"/>
			<g>
				<g>
					<path class="st2" d="M871.5,496.08c0.38-0.1,0.59-0.14,1.01-0.18c0.41-0.03,0.82-0.08,1.23-0.15c0.36-0.06,0.71-0.12,1.06-0.24
						c0.4-0.14,0.83-0.28,1.05-0.67c0.1-0.17,0.05-0.34-0.06-0.48c-0.29-0.34-0.79-0.39-1.2-0.42c-0.43-0.03-0.85,0.04-1.28,0.12
						c-0.38,0.07-0.73,0.19-1.09,0.33c-0.41,0.16-0.69,0.27-1.09,0.4c-0.33,0.11-0.58,0.47-0.47,0.82
						C870.79,495.95,871.14,496.17,871.5,496.08L871.5,496.08z"/>
				</g>
			</g>
			<path class="st18" d="M923.82,454.84c0,0,3.17-4.99,7.26-2.49c4.08,2.49,8.62,7.48,6.12,12.24
				C934.71,469.35,923.82,454.84,923.82,454.84z"/>
			<path class="st17" d="M891.79,529.73c0,0,1.53,14.29,0.34,16.33c-1.19,2.04-5.1,2.21-5.1,2.21s3.23,12.42,9.69,18.2
				s8.33,2.21,12.41-0.17c4.08-2.38,14.97-18.71,14.97-18.71s-4.59-0.51-4.59-4.42c0-3.91,0.17-18.37,0.17-18.37L891.79,529.73z"/>
			<path class="st17" d="M881.42,468.33c0,0-8.16,14.8-6.8,33.84c1.36,19.05,6.46,32.65,24.49,34.01
				c18.03,1.36,28.06-9.69,30.95-15.99c2.89-6.29,6.8-30.27,5.1-38.44c-1.7-8.16-12.76-22.79-26.87-25.51
				C894.17,453.54,883.46,463.57,881.42,468.33z"/>
			<g>
				<path class="st22" d="M939.36,512.33c-0.24,0.06-0.46,0.15-0.65,0.18c-0.59,0.1-1.19,0.17-1.8,0.17c-1.03,0-2.11-0.34-3.14-0.73
					c-1.8-0.22-3.54-0.69-5.31-1.08c-3.72-0.82-7.37-1.72-11.02-2.73c-0.61-0.17-0.87,0.63-0.41,0.97c0.8,0.59,1.5,1.08,2.44,1.45
					c0.92,0.36,1.87,0.68,2.82,0.96c1.97,0.59,3.97,1.03,5.97,1.5c1.98,0.47,3.96,0.94,6,1.08c1,0.07,2,0.02,2.99-0.1
					c0.85-0.11,1.8-0.19,2.22-1.03C939.55,512.79,939.51,512.44,939.36,512.33z"/>
			</g>
			<path class="st23" d="M874.39,506.09c0,0,8.39-6.8,19.73-6.58c11.34,0.23,24.49,8.39,24.49,8.39s4.08,14.51,3.63,18.37
				c-0.45,3.85-3.4,5.67-9.52,8.62c-6.12,2.95-20.18,2.72-26.08-1.59c-5.9-4.31-10.2-12.02-11.11-16.55
				C874.62,512.21,874.39,506.09,874.39,506.09z"/>
			<g>
				<g>
					<path class="st21" d="M879.34,490.86c1.46-1.24,3.16-1.76,5.03-2.12c0.49-0.09,0.97-0.18,1.46-0.25
						c0.29-0.04-0.23,0.03,0.06-0.01c0.15-0.02,0.29-0.03,0.44-0.05c0.26-0.03,0.53-0.04,0.79-0.06c0.51-0.04,1.03-0.06,1.54-0.01
						c0.24,0.02,0.48,0.05,0.72,0.06c0.1,0,0.2,0,0.3,0c-0.29,0,0.35,0.02,0.43,0.02c1.29-0.08,1.77-1.45,1-2.41
						c-0.89-1.09-2.6-1.22-3.9-1.17c-1.28,0.05-2.57,0.35-3.81,0.65c-2.35,0.56-5.16,1.76-5.84,4.32
						C877.27,490.9,878.55,491.52,879.34,490.86L879.34,490.86z"/>
				</g>
			</g>
			<g>
				<g>
					<path class="st21" d="M903.3,487.34c2.19,0.21,4.42,0.89,6.48,1.64c1.02,0.37,2.05,0.89,2.98,1.55c0.8,0.56,1.65,1.97,2.8,2.03
						c-0.16-0.04-0.32-0.09-0.48-0.13c0.73,0.43,1.34,0.01,1.48-0.75c0.16-0.84-0.48-1.69-1.03-2.27c-1.01-1.05-2.32-1.85-3.65-2.44
						c-2.72-1.22-5.62-1.7-8.59-1.35C902.19,485.73,902.18,487.23,903.3,487.34L903.3,487.34z"/>
				</g>
			</g>
			<path class="st17" d="M953.87,636.7c0,0,10.54,51.36,11.56,58.16c1.02,6.8-9.18,46.92-9.18,46.92h22.11
				c0,0,14.97-40.8,12.24-62.57c-2.72-21.77-10.54-57.82-10.54-57.82l-27.55,1.36L953.87,636.7z"/>
			<path class="st21" d="M932.65,503.42c0.73-1.01,1.48-1.99,2.23-2.99c2.13-2.81,4.09-5.75,5.16-9.15c0.48-1.5,0.78-3.04,0.96-4.6
				c0.19-1.64,0.22-3.3,0.48-4.93c0.01-0.03,0.03-0.05,0.05-0.07c-0.08-9.6-2.91-17.5-8.86-23.67c-6.35-6.58-12.47-4.99-18.82-4.76
				c-9.79,0.35-15.42,3.85-15.42,3.85s1.13,5.44,7.26,14.29c6.12,8.84,19.05,14.29,19.05,14.29s0.23,4.01,2.27,9.3
				C928.79,499.63,931.56,502.44,932.65,503.42z"/>
			<path class="st21" d="M902.34,460.51c0,0-10.54,1.36-17.35,9.52c-6.8,8.16-10.2,20.41-10.2,20.41s-2.55-3.85-2.21-14.06
				c0.34-10.2,9.81-22.79,22.9-26.53c13.1-3.74,28.8,0.11,35.43,6.41c6.63,6.29-6.97,5.61-9.18,6.29
				C919.51,463.23,902.34,460.51,902.34,460.51z"/>
			<g>
				<g>
					<path class="st2" d="M892.01,495.71c0.7-2.08-0.27-4.89-1.56-6.56c-1.48-1.94-3.69-3.22-6.07-3.72
						c-4.8-1-11.15,0.46-13.85,4.87c-3.06,4.98,0.03,11.72,5.03,14.11c2.54,1.22,5.32,2.05,8.14,1.55c2.35-0.42,4.7-2.21,6.23-3.97
						c2.24-2.59,3.07-6.51,2.32-9.81c-0.35-1.56-1.27-3.13-2.47-4.21c-0.54-0.49-1.23-0.92-1.94-1.07c-0.95-0.2-1.88,0.02-2.8-0.39
						c-0.21-0.09-0.47,0.17-0.26,0.34c0.76,0.63,1.74,0.93,2.56,1.51c1.06,0.75,1.91,1.82,2.46,3c1.19,2.59,0.91,5.54-0.36,8.05
						c-0.96,1.88-2.3,3.94-4.47,4.54c-2.13,0.58-4.62,0.38-6.68-0.36c-1.1-0.4-2.04-1.18-2.95-1.91c-1-0.79-1.92-1.7-2.61-2.78
						c-1.22-1.9-1.56-4.26-0.68-6.37c1.61-3.85,6.49-5.12,10.28-4.97c2.25,0.09,4.71,0.59,6.43,2.14c0.78,0.71,1.46,1.61,1.91,2.57
						c0.52,1.1,0.6,2.32,1.02,3.45C891.74,495.87,891.96,495.88,892.01,495.71L892.01,495.71z"/>
				</g>
			</g>
			<g>
				<g>
					<path class="st2" d="M898.53,495.71c0.35-0.94,0.44-1.94,0.79-2.88c0.35-0.96,0.94-1.88,1.63-2.63
						c1.36-1.48,3.26-2.21,5.21-2.49c3.85-0.56,8.74,0.17,11.24,3.48c1.3,1.72,1.59,4.04,0.91,6.07c-0.79,2.37-2.77,3.94-4.7,5.36
						c-1.88,1.37-4.44,1.89-6.75,1.57c-1.04-0.14-1.95-0.28-2.87-0.83c-0.96-0.57-1.76-1.49-2.34-2.44
						c-1.58-2.61-2.58-5.51-1.61-8.55c0.44-1.38,1.21-2.65,2.3-3.62c0.92-0.82,2.16-1.13,3.09-1.91c0.2-0.17-0.06-0.43-0.26-0.34
						c-0.79,0.35-1.58,0.27-2.42,0.34c-0.64,0.05-1.22,0.32-1.75,0.67c-1.21,0.81-2.12,2.19-2.67,3.51
						c-1.23,2.96-0.62,6.55,0.85,9.31c1.17,2.19,3.19,3.89,5.44,4.9c1.27,0.57,2.4,0.89,3.82,0.88c1.4-0.01,2.82-0.34,4.11-0.86
						c1.34-0.54,2.66-1.03,3.8-1.94c1.17-0.93,2.21-2.06,3-3.34c1.46-2.35,2.05-5.2,1.16-7.87c-1.7-5.15-7.63-7.16-12.61-6.93
						c-2.86,0.14-5.65,1.19-7.61,3.33c-1.6,1.75-2.88,4.84-2.08,7.2C898.25,495.88,898.47,495.87,898.53,495.71L898.53,495.71z"/>
				</g>
			</g>
			<g>
				<g>
					<path class="st2" d="M892.29,495.31c0.21-0.22,0.26-0.26,0.54-0.42c0.29-0.16,0.37-0.19,0.67-0.29
						c0.15-0.05,0.3-0.08,0.45-0.12c0.07-0.02,0.14-0.03,0.21-0.04c0.02,0,0.22-0.03,0.1-0.02c0.32-0.04,0.64-0.05,0.96-0.04
						c0.15,0.01,0.3,0.02,0.45,0.04c-0.17-0.02,0.04,0.01,0.08,0.01c0.08,0.01,0.17,0.03,0.25,0.05c0.15,0.03,0.3,0.08,0.45,0.13
						c0.07,0.02,0.13,0.05,0.2,0.07c-0.19-0.07,0.01,0,0.05,0.02c0.26,0.12,0.51,0.26,0.74,0.43c-0.17-0.12,0.1,0.12,0.16,0.16
						c0.13,0.11,0.31,0.24,0.46,0.31c0.47,0.23,1.01-0.05,1.03-0.59c0.03-0.89-0.87-1.55-1.6-1.85c-0.68-0.28-1.45-0.37-2.18-0.35
						c-1.37,0.04-3.01,0.47-3.9,1.59c-0.21,0.27-0.26,0.63,0,0.89C891.64,495.54,892.06,495.56,892.29,495.31L892.29,495.31z"/>
				</g>
			</g>
			<path class="st2" d="M881.81,493.21c-1.11,1.69-0.81,4.19,0.68,5.56c0.68,0.64,1.69,1.04,2.55,0.71
				c1.73-0.67,2.45-4.04,1.73-5.63C885.83,491.82,883.09,491.26,881.81,493.21z"/>
			<path class="st2" d="M905.99,493.6c-1.16,1.77-0.85,4.38,0.71,5.82c0.72,0.66,1.76,1.09,2.67,0.74c1.81-0.7,2.57-4.23,1.81-5.89
				C910.2,492.15,907.33,491.56,905.99,493.6z"/>
			<path class="st18" d="M930.76,549.89c0,0,25.95,5.63,31.62,11.52c5.67,5.9,18.37,55.1,19.27,59.18
				c0.91,4.08,2.49,11.34,2.49,11.34s-7.26,0.23-17.23,3.63c-9.98,3.4-12.7,4.99-12.7,4.99l-14.06-39.23
				C940.15,601.33,929.85,551.71,930.76,549.89z"/>
			<path class="st19" d="M900.13,568.79c0,0,2.69,2.65,5.22,5.9c2.38,3.06,4.54,7.03,4.54,7.03s8.5-7.45,14.17-17.57
				c5.78-10.32,4.88-15.42,4.88-15.42l-6.52-2.15c0,0-1.64,4.76-10.71,13.27C906.32,564.86,900.13,568.79,900.13,568.79z"/>
			<path class="st19" d="M899.79,568.45c0,0-3.74,1.7-7.82,5.16c-3.49,2.96-5.27,5.27-5.27,5.27s-6.97-8.5-6.29-18.2
				c0.68-9.69,3.06-12.59,3.06-12.59l5.44-1.02c0,0,0.39,3.81,2.72,9.35C894.34,562.89,899.79,568.45,899.79,568.45z"/>
			<path class="st19" d="M975.37,624.16c-3.27,0.62-6.53,1.3-9.76,2.09c-5.07,1.25-10.03,2.98-14.52,5.59l3.12,8.71
				c0,0,2.72-1.59,12.7-4.99c9.98-3.4,17.23-3.63,17.23-3.63s-1.04-4.76-1.92-8.73C979.92,623.38,977.64,623.73,975.37,624.16z"/>
			<g>
				<path class="st18" d="M867.51,573.52c-3.79,11.34-8.84,22.93-8.39,35.13c0.21,5.77,1.76,11.47,4.59,16.51
					c1.35,2.4,3.01,4.59,4.38,6.98c1.45,2.54,2.59,5.26,3.11,8.14c0.6,3.28,0.26,6.71-0.14,10c-0.41,3.28-1.04,6.52-1.47,9.79
					c-0.08,0.58,0.82,0.64,0.98,0.13c1.84-5.51,2.98-11.54,2.67-17.37c-0.31-5.74-3.02-10.61-6.2-15.24
					c-3.18-4.64-5.35-10.4-6.06-15.98c-0.77-6.03,0.03-12.14,1.48-18c1.65-6.7,4.21-13.15,6.11-19.78
					C868.77,573.12,867.73,572.85,867.51,573.52L867.51,573.52z"/>
			</g>
			<g>
				<path class="st18" d="M942.35,605.1c0.48,2.31,0.83,4.54,1.66,6.76c0.85,2.27,1.8,4.5,2.73,6.74c0.9,2.18,1.77,4.37,2.48,6.62
					c0.35,1.11,0.66,2.23,0.95,3.36c0.25,1,0.35,2.16,1.02,2.98c0.16,0.2,0.56,0.15,0.67-0.09c0.42-0.88,0.22-1.9,0.06-2.83
					c-0.21-1.21-0.5-2.38-0.87-3.55c-0.71-2.31-1.61-4.55-2.54-6.79c-0.91-2.19-1.85-4.36-2.69-6.57c-0.85-2.24-1.95-4.56-2.43-6.91
					C943.25,604.13,942.21,604.42,942.35,605.1L942.35,605.1z"/>
			</g>
			<g>
				<path class="st16" d="M867.51,573.52c-3.79,11.34-8.84,22.93-8.39,35.13c0.21,5.77,1.76,11.47,4.59,16.51
					c1.35,2.4,3.01,4.59,4.38,6.98c1.45,2.54,2.59,5.26,3.11,8.14c0.6,3.28,0.26,6.71-0.14,10c-0.41,3.28-1.04,6.52-1.47,9.79
					c-0.08,0.58,0.82,0.64,0.98,0.13c1.84-5.51,2.98-11.54,2.67-17.37c-0.31-5.74-3.02-10.61-6.2-15.24
					c-3.18-4.64-5.35-10.4-6.06-15.98c-0.77-6.03,0.03-12.14,1.48-18c1.65-6.7,4.21-13.15,6.11-19.78
					C868.77,573.12,867.73,572.85,867.51,573.52L867.51,573.52z"/>
			</g>
			<g>
				<path class="st16" d="M942.35,605.1c0.48,2.31,0.83,4.54,1.66,6.76c0.85,2.27,1.8,4.5,2.73,6.74c0.9,2.18,1.77,4.37,2.48,6.62
					c0.35,1.11,0.66,2.23,0.95,3.36c0.25,1,0.35,2.16,1.02,2.98c0.16,0.2,0.56,0.15,0.67-0.09c0.42-0.88,0.22-1.9,0.06-2.83
					c-0.21-1.21-0.5-2.38-0.87-3.55c-0.71-2.31-1.61-4.55-2.54-6.79c-0.91-2.19-1.85-4.36-2.69-6.57c-0.85-2.24-1.95-4.56-2.43-6.91
					C943.25,604.13,942.21,604.42,942.35,605.1L942.35,605.1z"/>
			</g>
			<g>
				<path class="st17" d="M931.42,503.74c0,0,6.63-10.54,11.05-5.1c4.42,5.44,0.17,13.1-3.91,13.95c-4.08,0.85-8.67-2.72-9.01-4.08
					C929.21,507.14,931.42,503.74,931.42,503.74z"/>
				<path class="st22" d="M940.52,496.38c-2.42-0.86-4.93,0.18-6.2,2.39c-0.88,1.54-1.45,3.31-2.21,4.93
					c-0.8,1.72-1.65,3.42-2.48,5.13c-1.67,3.44-3.07,7.01-4.73,10.45c-0.86,1.78-1.78,3.55-2.67,5.32c0.05,0.67,0.06,1.25,0.01,1.68
					c-0.06,0.55-0.19,1.06-0.36,1.53c1.57-2.21,3.03-4.53,4.33-6.9c1.72-3.13,3.12-6.39,4.68-9.59c1.54-3.16,3.12-6.31,4.49-9.55
					c0.49-1.15,0.83-2.51,1.93-3.25c0.92-0.62,2.17-0.76,3.22-1.08C941.06,497.27,941.03,496.55,940.52,496.38z"/>
			</g>
			<g>
				<g>
					<path class="st2" d="M919.32,498.23c1.59-0.58,3.5-0.22,5.17-0.33c2.13-0.14,4.24-0.18,6.37-0.24
						c2.07-0.07,4.11-0.45,6.18-0.56c1-0.05,2.24-0.14,3.21,0.19c0.79,0.27,1,0.9,1.34,1.6c0.37,0.75,1.55,0.53,1.75-0.23
						c0.55-2.07-1.28-3.59-3.11-3.99c-2.53-0.55-5.17-0.05-7.69,0.32c-1.22,0.18-2.45,0.24-3.67,0.42c-1.33,0.2-2.64,0.5-3.97,0.68
						c-2.04,0.28-4.13,0.13-6,1.12C918.35,497.51,918.72,498.45,919.32,498.23L919.32,498.23z"/>
				</g>
			</g>
		</g>
		<g>
			<path class="st16" d="M880.56,632.88c4.76-1.34,9.73-2.07,14.67-2.34c4.93-0.27,9.83,0.08,14.76,0.17
				c0.53,0.01,0.65-0.8,0.13-0.93c-4.89-1.21-10.06-1.39-15.08-1.08c-5.08,0.32-10,1.32-14.81,2.97
				C879.48,631.93,879.78,633.1,880.56,632.88L880.56,632.88z"/>
		</g>
	</g>
	<g>
		<g>
			<path class="st24" d="M885.14,507.17c1.5-0.61,2.71-1.62,3.95-2.63c1.25-1.03,2.75-2.34,4.45-2.46c1.83-0.13,3.89,1.34,5.32,2.33
				c0.84,0.59,1.64,1.23,2.47,1.83c0.69,0.5,1.65,1.47,2.56,1.09c0.22-0.09,0.38-0.25,0.39-0.51c0.03-1.05-1.31-1.7-2.03-2.26
				c-0.83-0.65-1.69-1.27-2.57-1.85c-1.67-1.1-3.87-2.33-5.94-2.22c-3.73,0.21-5.89,4.33-8.88,6.02
				C884.53,506.71,884.76,507.32,885.14,507.17L885.14,507.17z"/>
		</g>
	</g>
	<g>
		<g>
			<path class="st24" d="M879.81,513.69c5.16,1.25,10.31,2.16,15.63,2.14c2.64-0.01,5.25-0.39,7.85-0.78
				c1.35-0.2,2.68-0.53,4.02-0.77c1.41-0.25,2.86-0.24,4.25-0.53c0.17-0.04,0.18-0.33,0-0.35c-1.2-0.18-2.44,0.01-3.64,0.08
				c-1.28,0.08-2.56,0.12-3.84,0.25c-2.73,0.26-5.43,0.64-8.17,0.77c-5.32,0.24-10.75-0.24-15.95-1.38
				C879.59,513.03,879.43,513.6,879.81,513.69L879.81,513.69z"/>
		</g>
	</g>
	<g>
		<g>
			<path class="st24" d="M881.5,521.84c5.13,2.47,10.91,2.11,16.45,2.02c2.6-0.05,5.21-0.23,7.77-0.71
				c1.38-0.26,2.74-0.62,4.05-1.11c1.03-0.38,2.25-0.78,2.83-1.77c0.19-0.32-0.06-0.69-0.41-0.71c-1.11-0.06-2.23,0.64-3.26,1
				c-1.13,0.39-2.28,0.68-3.45,0.92c-2.55,0.53-5.15,0.73-7.74,0.81c-5.29,0.16-10.81,0.52-15.85-1.4
				C881.35,520.69,880.97,521.59,881.5,521.84L881.5,521.84z"/>
		</g>
	</g>
	<g>
		<g>
			<path class="st24" d="M889.54,530.89c3.56,1.8,7.66,2.09,11.57,1.54c2.07-0.29,4.09-0.79,6.13-1.23c1.83-0.4,4.04-0.66,5.62-1.72
				c0.23-0.15,0.16-0.57-0.15-0.55c-1.71,0.07-3.37,0.87-5.02,1.29c-1.98,0.51-4,0.79-6.04,0.9c-3.8,0.2-7.84,0.13-11.35-1.52
				C889.43,529.18,888.66,530.45,889.54,530.89L889.54,530.89z"/>
		</g>
	</g>
</g>
<g>
	<path class="st25" d="M771.52,591c0,0,13.29-3.26,16.28-3.8c2.98-0.54,27.4-0.81,30.12,0c2.71,0.81,8.68,3.53,8.68,3.53
		s5.43,69.73,6.24,92.79c0.81,23.06,1.09,57.89,1.09,57.89l-79.23-0.11c0,0,1.9-71.35,6.24-100.1
		C765.28,612.44,771.52,591,771.52,591z"/>
	<path class="st26" d="M785.31,571.37c0,0-0.23,13.61-0.45,15.19c-0.23,1.59-2.95,2.72-2.95,2.72s-1.36,6.8,16.78,6.58
		c18.14-0.23,20.86-8.39,20.86-8.39l-0.68-26.53C818.87,560.93,788.26,572.73,785.31,571.37z"/>
	<path class="st26" d="M775.79,493.13c0,0-8.16,12.02-9.98,23.13c-1.81,11.11-1.36,34.01,4.54,44.9
		c5.9,10.88,12.93,15.65,23.81,15.65s24.72-8.39,30.84-14.74c6.12-6.35,11.34-34.47,9.75-46.71c-1.59-12.24-5.22-21.77-21.32-23.81
		C797.33,489.51,775.79,493.13,775.79,493.13z"/>
	<path class="st2" d="M773.66,528.58c-1.11,1.69-0.81,4.19,0.68,5.56c0.68,0.63,1.69,1.04,2.55,0.71c1.73-0.67,2.45-4.04,1.73-5.63
		C777.69,527.18,774.94,526.63,773.66,528.58z"/>
	<path class="st2" d="M801.42,530.39c-1.16,1.77-0.85,4.38,0.71,5.82c0.72,0.66,1.76,1.09,2.67,0.74c1.81-0.7,2.57-4.23,1.81-5.89
		C805.63,528.93,802.76,528.35,801.42,530.39z"/>
	<g>
		<path class="st2" d="M772.45,525.49c0.13-0.2-0.15,0.14,0.02-0.03c0.06-0.06,0.11-0.11,0.17-0.16c0.15-0.14-0.11,0.07,0.01,0
			c0.07-0.05,0.15-0.1,0.22-0.14c0.15-0.09,0.32-0.16,0.48-0.23c0.06-0.03,0.36-0.15,0.07-0.04c0.08-0.03,0.17-0.07,0.25-0.1
			c0.89-0.32,1.82-0.5,2.75-0.66c0.25-0.04,0.5-0.07,0.75-0.13c0.2-0.04-0.28,0.03,0.04-0.01c0.14-0.01,0.28-0.03,0.41-0.04
			c0.5-0.05,1.01-0.08,1.52-0.08c1.06-0.01,2.33,0.09,3.26-0.5c0.5-0.32,0.81-1.08,0.42-1.62c-0.84-1.16-2.34-1.37-3.68-1.3
			c-1.26,0.07-2.58,0.22-3.78,0.6c-1.8,0.56-4.24,1.6-4.73,3.66C770.37,525.85,771.82,526.42,772.45,525.49L772.45,525.49z"/>
	</g>
	<g>
		<path class="st2" d="M799.65,524.11c0.34,0.01,0.68,0.02,1.02,0.04c0.2,0.01,0.4,0.03,0.59,0.06c0.11,0.01,0.24,0.03,0.05,0.01
			c0.12,0.02,0.23,0.03,0.35,0.05c0.95,0.15,1.9,0.29,2.83,0.52c0.5,0.13,0.99,0.28,1.48,0.45c0.22,0.08,0.45,0.16,0.67,0.25
			c-0.3-0.12,0.12,0.06,0.15,0.07c0.13,0.06,0.26,0.13,0.38,0.19c0.45,0.22,0.89,0.46,1.33,0.69c0.13,0.06,0.59,0.27,0.33,0.15
			c0.19,0.08,0.38,0.18,0.57,0.25c-0.2-0.08,0.53,0.19,0.36,0.13c0.16,0.05,0.33,0.08,0.51,0.07c0.38-0.04,0.86-0.27,0.92-0.7
			c0.07-0.48-0.02-0.73-0.21-1.16c0.05,0.1,0.04,0.07-0.04-0.1c-0.03-0.1-0.08-0.19-0.13-0.27c0.12,0.19-0.45-0.58-0.25-0.32
			c-0.44-0.56-1.04-1.03-1.67-1.39c-1.03-0.58-2.24-0.95-3.39-1.16c-1.1-0.2-2.23-0.34-3.35-0.3c-0.83,0.03-1.67,0.09-2.49,0.17
			C798.2,521.93,798.14,524.07,799.65,524.11L799.65,524.11z"/>
	</g>
	<path class="st2" d="M829.08,539.79c0,0-5.78-5.27-4.93-16.67c0.85-11.39,4.08-17.18-0.17-20.92c-4.25-3.74-11.05-2.72-16.16-1.7
		c-5.1,1.02-15.99,0.68-21.6-1.02c-5.61-1.7-6.97-2.55-11.9,0.34c-4.93,2.89-7.14,15.14-7.99,19.22s-1.19,8.5-1.19,8.5
		s-3.06-8.67-2.55-14.97c0.51-6.29,4.59-9.35,4.93-12.42c0.34-3.06-4.08-8.33-2.21-14.63c1.87-6.29,9.01-10.03,14.12-7.82
		c5.1,2.21,8.5,6.29,10.71,5.78c2.21-0.51,6.8-3.57,9.69-1.7c2.89,1.87,3.06,2.72,5.1,3.06c2.04,0.34,4.59-1.7,7.99-0.17
		c3.4,1.53,4.08,3.4,5.78,3.4c1.7,0,7.99-3.06,11.22,0.51c3.23,3.57,2.04,10.37,2.04,10.37s12.64,2.27,14.46,13.1
		C849.65,531.29,829.08,539.79,829.08,539.79z"/>
	<path class="st26" d="M825.67,541.21c0,0,8.84-9.98,12.7-5.9c3.85,4.08,4.76,11.11,0,14.51c-4.76,3.4-10.2,2.95-12.02,0.68
		S825.67,541.21,825.67,541.21z"/>
	<path class="st27" d="M830.55,536.78c0,0-10.66,4.2-13.55,9.64c-2.89,5.44-2.89,11.05,1.7,11.9c4.59,0.85,11.62-6.24,11.62-6.24
		l2.15,0.11c0,0-4.42,8.16-11.22,14.12c-6.8,5.95-21.43,13.1-35.37,9.52c-11.75-3.01-15.99-11.62-18.71-19.44
		c-1.56-4.48-2.04-15.42-2.04-15.42s2.72,0.85,9.69-1.87c6.97-2.72,10.54-6.8,17.52-5.44c6.97,1.36,13.27,8.84,18.2,9.01
		c4.93,0.17,17.39-7.35,19.39-7.82c2.89-0.68,3.57,0,3.57,0L830.55,536.78z"/>
	<g>
		<path class="st28" d="M787.32,535.79c-3.48,5.27-3.47,12.4-3.41,18.49c0.04,3.58,0.32,7.17,1.04,10.68
			c0.37,1.8,0.91,3.54,1.61,5.24c0.61,1.48,1.31,3.07,2.44,4.23c0.27,0.28,0.81,0,0.68-0.39c-0.53-1.55-1.41-2.98-2-4.51
			c-0.62-1.59-1.12-3.24-1.52-4.9c-0.82-3.39-0.95-6.87-1-10.35c-0.08-6.07,0.23-12.46,3.03-17.99
			C788.47,535.72,787.67,535.26,787.32,535.79L787.32,535.79z"/>
	</g>
	<path class="st29" d="M823.63,588.6c0,0,2.04,39.12,2.38,66.67c0.34,27.55,0,86.15,0,86.15h27.21l-3.06-49.08l7.82,49.08h33.67
		c0,0-7.14-78.67-14.29-107.24c-7.14-28.57-9.52-32.31-23.47-37.42C839.96,591.66,823.63,588.6,823.63,588.6z"/>
	<path class="st29" d="M776.18,589.11c0,0-24.66,2.72-34.18,12.93c-7.71,8.27-14.63,63.78-14.97,78.06s-3.4,61.32-3.4,61.32h36.73
		c0,0,3.23-59.79,5.95-91.76C769.04,617.68,776.18,589.11,776.18,589.11z"/>
	<g>
		<path class="st30" d="M753.95,639.1c-0.8-2.97-2.37-5.39-4.87-7.2c-0.49-0.36-1.14,0.47-0.65,0.85c4.54,3.53,5.07,9.68,4.99,15.01
			c-0.11,7.4-0.6,14.8-1.07,22.18c-0.98,15.49-2.38,30.96-3.34,46.45c-0.26,4.19-0.46,8.38-0.89,12.55
			c-0.42,4.12-1.07,8.34-0.63,12.48c0.43-0.03,0.85,0.01,1.28,0c0.22-3.71,0.42-7.4,0.82-11.1c0.42-3.89,0.76-7.78,1-11.68
			c0.5-7.88,1.1-15.75,1.62-23.63c1.03-15.53,2.16-31.12,2.54-46.69C754.82,645.23,754.75,642.09,753.95,639.1z"/>
	</g>
	<g>
		<path class="st30" d="M838.9,651.58c1.57,6.91,3.87,13.62,5.83,20.43c1.85,6.45,3.45,12.96,4.73,19.55
			c0.38,1.92,0.73,3.85,1.07,5.78c0.17,0.99,0.34,1.97,0.5,2.96c0.16,0.96,0.28,1.95,0.83,2.78c0.18,0.28,0.62,0.24,0.72-0.09
			c0.45-1.54-0.1-3.35-0.34-4.88c-0.28-1.76-0.57-3.52-0.89-5.27c-0.6-3.27-1.25-6.52-1.99-9.76c-1.55-6.81-3.49-13.53-5.49-20.22
			c-1.17-3.9-2.39-7.78-3.76-11.61C839.84,650.49,838.72,650.78,838.9,651.58L838.9,651.58z"/>
	</g>
</g>
<g>
	<path class="st31" d="M643.58,653.6c0,0-3.6-0.41-1.02-17.69c3.63-24.26,6.38-30.95,6.38-30.95s-1.19-2.63-9.18-7.82
		c-10.12-6.58-33.48-13.15-33.48-13.15l-9.62,6.5l-14.07-5.59c0,0-19.48,7.28-27.32,12.7c-9.52,6.58-15.19,12.93-15.19,12.93
		s6.69-0.91,10.32,23.36c2.58,17.27-2.04,26.19-2.04,26.19s8.23,41.01,8.5,50c0.25,8.25,0,30.94,0,30.94h32.91h50.76
		c0,0-1.62-24.06-2.04-32.3c-0.85-16.5,4.06-24.56,5.44-38.44C644.95,659.96,643.58,653.6,643.58,653.6z"/>
	<path class="st32" d="M673.93,656.33c0,0,1.53,16.27,0.73,33.68c-0.8,17.41-2.23,22.6-8.55,32.12
		c-5.47,8.26-19.46,18.72-19.46,18.72L620.1,741c0,0,20.18-24.33,24.84-33.09c4.65-8.76-2.85-48.22-2.85-48.22s5.24-4.02,13.68-5.48
		C664.21,652.75,673.93,656.33,673.93,656.33z"/>
	<path class="st31" d="M637.63,596.35c0,0,20.85,8,29.68,30.93c5.36,13.91,9.45,51.85,9.45,51.85s-7.32,0.16-16.86,2.13
		c-10.33,2.13-15.01,3.96-15.01,3.96s-6.45-30.09-6.88-45.05C637.57,625.19,632.55,596.95,637.63,596.35z"/>
	<g>
		<path class="st12" d="M592.56,488.97c0,0-15.14-1.87-26.36,10.37c-11.22,12.24-10.71,41.16-11.05,53.57
			c-0.34,12.42,0.51,24.15,0.51,24.15s14.46,7.31,41.67,6.8c27.38-0.51,39.8-7.48,39.8-7.48s4.59-35.88-1.19-55.1
			c-5.78-19.22-14.29-27.21-26.53-30.95C597.15,486.59,592.56,488.97,592.56,488.97z"/>
		<path class="st32" d="M594.72,497.59c0,0-12.93,0.23-21.77,12.24c-8.84,12.02-4.54,41.27-2.95,47.62
			c1.59,6.35,10.87,21.69,24.26,22.9c14.97,1.36,27.55-12.47,29.59-23.81c2.04-11.34,5.1-41.95-9.41-52.15
			C599.93,494.19,594.72,497.59,594.72,497.59z"/>
		<g>
			<path class="st32" d="M571.77,544.21c0,0-6.69-10.41-12-8.43c-5.31,1.99-0.15,13.2,4.73,17.61c4.88,4.41,8.8,2.07,8.8,2.07
				L571.77,544.21z"/>
			<path class="st32" d="M621.45,544.21c0,0,6.69-10.41,12-8.43c5.31,1.99,0.15,13.2-4.73,17.61c-4.88,4.41-8.8,2.07-8.8,2.07
				L621.45,544.21z"/>
		</g>
		<path class="st32" d="M581.08,566.75c0,0,1.36,18.14,0.45,19.27c-0.91,1.13-7.94,3.17-7.94,3.17s3.4,9.75,22.22,9.98
			c18.82,0.23,23.81-9.98,23.81-9.98l-8.62-3.17v-19.27H581.08z"/>
		<g>
			<path class="st3" d="M581.06,538c-1.47,1.61-1.58,4.3-0.24,6.02c0.62,0.79,1.61,1.4,2.59,1.19c1.95-0.41,3.3-3.87,2.8-5.67
				C585.57,537.22,582.76,536.16,581.06,538z"/>
			<path class="st3" d="M608.09,538c-1.47,1.61-1.58,4.3-0.24,6.02c0.62,0.79,1.61,1.4,2.59,1.19c1.95-0.41,3.3-3.87,2.8-5.67
				C612.6,537.22,609.78,536.16,608.09,538z"/>
		</g>
		<path class="st12" d="M568.41,540.67c0,0,1.13-13.15,5.9-22.22c4.76-9.07,10.43-10.66,10.43-10.66s1.59,5.9,12.24,12.47
			c10.66,6.58,15.65,6.35,15.65,6.35s-5.22-4.54-7.26-7.94c-2.04-3.4-2.27-6.12-2.27-6.12s5.22,9.75,13.61,13.38
			c8.39,3.63,12.93,2.04,12.93,2.04s-3.17-30.16-24.49-35.37c-21.32-5.22-36.05,9.75-40.14,18.14
			C560.93,519.13,568.41,540.67,568.41,540.67z"/>
		<path class="st12" d="M616.71,518.91l8.16,21.77c0,0,4.42-6.29,5.95-10.71c1.53-4.42,1.36-13.95-1.53-18.03
			c-2.89-4.08-11.56-10.54-11.56-10.54L616.71,518.91z"/>
		<g>
			<g>
				<path class="st12" d="M587.67,530.45c-0.58-0.08-1.14-0.28-1.71-0.41c-0.68-0.15-1.4-0.22-2.09-0.29
					c-0.71-0.07-1.47,0.06-2.16,0.18c-0.67,0.12-1.36,0.43-1.93,0.8c-0.46,0.3-0.97,0.77-1.26,1.24c-0.08,0.13-0.08,0.13-0.17,0.34
					c-0.04,0.08-0.07,0.17-0.11,0.25c0.15-0.32,0.18-0.41,0.09-0.27c-0.05-0.06-0.25,0.66-0.27,0.8c-0.02,0.13-0.13,0.71,0,0.04
					c-0.18,0.9,0.19,1.76,1.04,2.12c0.31,0.13,0.6,0.17,0.93,0.12c0.57-0.08,0.02-0.03-0.07,0c0.18-0.05,0.43-0.02,0.62-0.07
					c0.19-0.06,0.36-0.13,0.53-0.23c0.1-0.05,0.06-0.04-0.1,0.04c-0.5,0.25,0.45-0.19,0.61-0.26c0.09-0.04,0.33-0.15-0.02,0
					c-0.53,0.23,0.36-0.15,0.37-0.16c0.13-0.06,0.25-0.12,0.38-0.19c0.16-0.08,0.34-0.07-0.26,0.11c0.08-0.02,0.16-0.06,0.24-0.09
					c0.51-0.17,1.01-0.34,1.54-0.45c0.63-0.12,1.25-0.26,1.88-0.37c0.3-0.06,0.6-0.14,0.9-0.22c0.07-0.02,0.14-0.04,0.21-0.06
					c0.15-0.05,0.3-0.12,0.44-0.18c-0.06,0.03-0.12,0.06-0.18,0.09c0.03,0.03,0.51-0.13,0.55-0.14c0.59-0.13,1.08-0.78,1.05-1.38
					C588.69,531.26,588.3,530.54,587.67,530.45L587.67,530.45z"/>
			</g>
		</g>
		<g>
			<g>
				<path class="st12" d="M607.36,533.61c0.66-0.07,1.32-0.05,1.98,0.02c0.2,0.02,0.41,0.04,0.61,0.06
					c0.11,0.01,0.22,0.03,0.34,0.04c-0.19-0.01-0.33-0.05-0.06,0c0.4,0.06,0.8,0.15,1.19,0.25c0.39,0.1,0.78,0.21,1.16,0.34
					c0.09,0.03,0.18,0.06,0.26,0.1c0.31,0.12,0.03,0.04-0.11-0.05c0.16,0.1,0.35,0.17,0.51,0.26c0.16,0.09,0.31,0.2,0.47,0.29
					c0.12,0.08,0.37,0.28-0.12-0.1c0.19,0.16,0.33,0.25,0.51,0.38c0.06,0.04,0.12,0.09,0.19,0.13c0.16,0.07,0.33,0.14,0.49,0.21
					c-0.1-0.04-0.19-0.08-0.29-0.12c0.08-0.02,0.42,0.21,0.51,0.24c0.07,0.02,0.14,0.03,0.21,0.05c0.74,0.25,1.51-0.29,1.73-0.98
					c0.43-1.37-0.51-2.66-1.68-3.29c-0.98-0.52-2.04-0.82-3.14-0.93c-1.7-0.17-3.53-0.01-5.12,0.63c-0.59,0.24-1,0.72-0.91,1.39
					C606.19,533.07,606.73,533.68,607.36,533.61L607.36,533.61z"/>
			</g>
		</g>
		<g>
			<g>
				<path class="st15" d="M566.79,538.21c0.05,0.07,0.1,0.13,0.15,0.2c-0.06-0.15-0.12-0.3-0.18-0.44c0.07,0.69,0.51,1.25,0.93,1.79
					c0.45,0.57,0.89,1.15,1.33,1.73c0.89,1.18,1.73,2.38,2.5,3.64c0.74,1.22,1.41,2.49,1.99,3.8c0.29,0.65,0.56,1.31,0.81,1.97
					c0.3,0.8,0.48,1.42,1.2,1.94c0.46,0.34,1.08-0.03,1.23-0.5c0.27-0.82-0.04-1.5-0.34-2.27c-0.27-0.69-0.56-1.38-0.87-2.05
					c-0.64-1.37-1.38-2.68-2.19-3.96c-0.79-1.25-1.66-2.45-2.57-3.62c-0.45-0.57-0.93-1.12-1.41-1.66c-0.28-0.31-0.54-0.6-0.87-0.86
					c-0.25-0.2-0.62-0.35-0.84-0.56C567.07,536.79,566.32,537.61,566.79,538.21L566.79,538.21z"/>
			</g>
		</g>
		<path class="st15" d="M576.34,567.29c-0.12-0.27-0.19-0.52-0.41-0.74c-0.24-0.24-0.54-0.42-0.81-0.62
			c-0.49-0.37-0.95-0.78-1.38-1.21c-0.89-0.91-1.69-1.91-2.41-2.97c-0.74-1.08-1.39-2.22-1.97-3.4c-0.3-0.61-0.49-1.63-0.76-2.56
			c-0.72-0.21-1.5-0.53-2.32-1.05c0.26,1.55,0.93,3.56,1.34,4.4c0.63,1.29,1.36,2.54,2.18,3.72c0.8,1.15,1.7,2.24,2.71,3.22
			c0.48,0.46,0.96,0.91,1.48,1.32c0.62,0.49,1.08,0.78,1.88,0.73C576.31,568.1,576.52,567.69,576.34,567.29z"/>
		<g>
			<g>
				<path class="st15" d="M625.47,537.35c-0.21,0.2-0.6,0.37-0.84,0.56c-0.29,0.24-0.54,0.49-0.79,0.77
					c-0.49,0.54-0.97,1.09-1.42,1.66c-0.94,1.2-1.84,2.43-2.65,3.72c-0.78,1.24-1.51,2.52-2.14,3.85c-0.32,0.67-0.61,1.36-0.88,2.05
					c-0.31,0.79-0.66,1.52-0.38,2.38c0.15,0.47,0.77,0.84,1.23,0.5c0.68-0.49,0.87-1.06,1.16-1.82c0.25-0.67,0.51-1.33,0.8-1.98
					c0.59-1.34,1.27-2.65,2.04-3.91c0.74-1.22,1.56-2.4,2.42-3.55c0.44-0.58,0.87-1.16,1.32-1.73c0.44-0.56,0.94-1.16,1.01-1.88
					c-0.06,0.15-0.12,0.3-0.18,0.44c0.05-0.07,0.1-0.13,0.15-0.2C626.8,537.61,626.05,536.79,625.47,537.35L625.47,537.35z"/>
			</g>
		</g>
		<path class="st15" d="M616.78,567.29c0.12-0.27,0.19-0.52,0.41-0.74c0.24-0.24,0.54-0.42,0.81-0.62c0.49-0.37,0.95-0.78,1.38-1.21
			c0.89-0.91,1.69-1.91,2.41-2.97c0.74-1.08,1.39-2.22,1.97-3.4c0.3-0.61,0.49-1.63,0.76-2.56c0.72-0.21,1.5-0.53,2.32-1.05
			c-0.26,1.55-0.93,3.56-1.34,4.4c-0.63,1.29-1.36,2.54-2.18,3.72c-0.8,1.15-1.7,2.24-2.71,3.22c-0.48,0.46-0.96,0.91-1.48,1.32
			c-0.62,0.49-1.08,0.78-1.88,0.73C616.81,568.1,616.61,567.69,616.78,567.29z"/>
		<path class="st15" d="M618.02,559.5c-0.44-4.79,0.34-9.3,0.34-9.3s-7.17-0.6-11.79-3.17c-3.25-1.81-5.93-5.25-9.89-5.46
			c-4.18-0.22-6.81,3.6-10.13,5.46c-4.62,2.58-11.79,3.17-11.79,3.17s0.78,4.51,0.34,9.3c-0.45,4.99-1.81,8.05-1.81,8.05
			s3.51,5.1,9.64,8.96c8.27,5.21,18.92,5.26,27.27,0c6.12-3.85,9.64-8.96,9.64-8.96S618.48,564.48,618.02,559.5z"/>
		<g>
			<g>
				<path class="st33" d="M595.89,542.8c-1.01,2.98-0.75,5.79-0.58,8.88c0.17,3.07,0.23,6.18,0.23,9.25c0,3.18-0.13,6.35,0.02,9.54
					c0.08,1.55,0.24,3.09,0.4,4.63c0.11,0.99-0.09,2.7,0.76,3.36c0.16,0.13,0.35,0.14,0.51,0c0.82-0.7,0.48-2.17,0.44-3.14
					c-0.07-1.46-0.16-2.91-0.23-4.37c-0.16-3.17-0.29-6.36-0.35-9.53c-0.05-3.02-0.4-6.02-0.48-9.03c-0.04-1.48,0.14-2.96,0.1-4.44
					c-0.03-1.62-0.11-3.27,0.23-4.86C597.09,542.39,596.11,542.12,595.89,542.8L595.89,542.8z"/>
			</g>
		</g>
		<g>
			<g>
				<path class="st15" d="M580.2,555.37c1.4,0,1.4-2.18,0-2.18C578.8,553.19,578.8,555.37,580.2,555.37L580.2,555.37z"/>
			</g>
		</g>
		<g>
			<g>
				<path class="st15" d="M587.28,547.57c-0.05,0.01-0.1,0.02-0.15,0.02c-0.12,0.05-0.24,0.1-0.36,0.15
					c-0.18,0.1-0.32,0.23-0.43,0.39c-0.09,0.1-0.16,0.21-0.2,0.34c-0.1,0.18-0.14,0.38-0.13,0.59c0.02,0.14,0.04,0.27,0.05,0.41
					c0.05,0.12,0.1,0.24,0.15,0.36c0.1,0.18,0.23,0.32,0.39,0.43c0.15,0.13,0.32,0.23,0.52,0.27c0.05,0.01,0.1,0.02,0.15,0.02
					c0.27,0.07,0.55,0.07,0.82,0c0.26-0.07,0.49-0.21,0.68-0.4c0.08-0.1,0.16-0.21,0.24-0.31c0.14-0.24,0.21-0.5,0.21-0.78
					c0.01-0.21-0.04-0.41-0.13-0.6c-0.06-0.19-0.17-0.36-0.32-0.5c-0.19-0.19-0.42-0.32-0.68-0.4
					C587.82,547.5,587.55,547.5,587.28,547.57L587.28,547.57z"/>
			</g>
		</g>
		<g>
			<g>
				<path class="st15" d="M586.33,558.08c1.39,0,1.39-2.16,0-2.16C584.94,555.92,584.94,558.08,586.33,558.08L586.33,558.08z"/>
			</g>
		</g>
		<g>
			<g>
				<path class="st15" d="M592.68,560.19c0.19,0.01,0.36-0.03,0.53-0.12c0.17-0.06,0.32-0.15,0.44-0.28
					c0.13-0.12,0.23-0.27,0.28-0.44c0.09-0.16,0.13-0.34,0.12-0.53c-0.02-0.12-0.03-0.24-0.05-0.36c-0.07-0.23-0.18-0.43-0.35-0.61
					c-0.09-0.07-0.18-0.14-0.28-0.21c-0.21-0.12-0.44-0.19-0.69-0.19c-0.19-0.01-0.36,0.03-0.53,0.12
					c-0.17,0.06-0.32,0.15-0.44,0.28c-0.13,0.12-0.23,0.27-0.28,0.44c-0.09,0.16-0.13,0.34-0.12,0.53c0.02,0.12,0.03,0.24,0.05,0.36
					c0.07,0.23,0.18,0.43,0.35,0.6c0.09,0.07,0.18,0.14,0.28,0.21C592.2,560.12,592.43,560.19,592.68,560.19L592.68,560.19z"/>
			</g>
		</g>
		<g>
			<g>
				<path class="st15" d="M577.94,562.05c1.54,0,1.54-2.39,0-2.39C576.4,559.66,576.4,562.05,577.94,562.05L577.94,562.05z"/>
			</g>
		</g>
		<g>
			<g>
				<path class="st15" d="M585.52,566.89c1.84,0,1.84-2.86,0-2.86C583.68,564.03,583.68,566.89,585.52,566.89L585.52,566.89z"/>
			</g>
		</g>
		<g>
			<g>
				<path class="st15" d="M592,569.7c1.46,0,1.47-2.27,0-2.27C590.53,567.43,590.53,569.7,592,569.7L592,569.7z"/>
			</g>
		</g>
		<g>
			<g>
				<path class="st15" d="M578.84,569.28c1.51,0,1.51-2.34,0-2.34C577.34,566.94,577.33,569.28,578.84,569.28L578.84,569.28z"/>
			</g>
		</g>
		<g>
			<g>
				<path class="st15" d="M585.42,575.04c1.33,0,1.33-2.06,0-2.06C584.09,572.98,584.09,575.04,585.42,575.04L585.42,575.04z"/>
			</g>
		</g>
		<g>
			<g>
				<path class="st15" d="M592.68,578.14c1.24,0,1.24-1.92,0-1.92C591.44,576.22,591.44,578.14,592.68,578.14L592.68,578.14z"/>
			</g>
		</g>
		<g>
			<g>
				<path class="st15" d="M600.39,549.31c1.48,0,1.48-2.3,0-2.3C598.91,547.01,598.9,549.31,600.39,549.31L600.39,549.31z"/>
			</g>
		</g>
		<g>
			<g>
				<path class="st15" d="M594.49,554.06c1.18,0,1.18-1.83,0-1.83C593.31,552.23,593.31,554.06,594.49,554.06L594.49,554.06z"/>
			</g>
		</g>
		<g>
			<g>
				<path class="st15" d="M599.93,558.92c0.17,0.01,0.33-0.03,0.48-0.11c0.15-0.05,0.29-0.14,0.4-0.26c0.12-0.11,0.21-0.25,0.26-0.4
					c0.08-0.15,0.11-0.31,0.11-0.48c-0.01-0.11-0.03-0.22-0.04-0.33c-0.06-0.21-0.17-0.39-0.32-0.55c-0.08-0.06-0.17-0.13-0.25-0.19
					c-0.19-0.11-0.4-0.17-0.63-0.17c-0.17-0.01-0.33,0.03-0.48,0.11c-0.15,0.05-0.29,0.14-0.4,0.26c-0.12,0.11-0.21,0.25-0.26,0.4
					c-0.08,0.15-0.11,0.31-0.11,0.48c0.01,0.11,0.03,0.22,0.04,0.33c0.06,0.21,0.17,0.39,0.32,0.55c0.08,0.06,0.17,0.13,0.25,0.19
					C599.5,558.87,599.71,558.92,599.93,558.92L599.93,558.92z"/>
			</g>
		</g>
		<g>
			<g>
				<path class="st15" d="M606.05,552.27c1.49,0,1.5-2.32,0-2.32C604.56,549.95,604.56,552.27,606.05,552.27L606.05,552.27z"/>
			</g>
		</g>
		<g>
			<g>
				<path class="st15" d="M612.63,555.66c1.48,0,1.48-2.3,0-2.3C611.15,553.36,611.15,555.66,612.63,555.66L612.63,555.66z"/>
			</g>
		</g>
		<g>
			<g>
				<path class="st15" d="M606.96,558.94c0.17,0.01,0.33-0.03,0.48-0.11c0.16-0.05,0.29-0.14,0.4-0.26c0.12-0.11,0.21-0.25,0.26-0.4
					c0.08-0.15,0.11-0.31,0.11-0.48c-0.01-0.11-0.03-0.22-0.04-0.33c-0.06-0.21-0.17-0.4-0.32-0.55c-0.08-0.07-0.17-0.13-0.25-0.2
					c-0.2-0.11-0.41-0.17-0.63-0.17c-0.17-0.01-0.33,0.03-0.48,0.11c-0.16,0.05-0.29,0.14-0.4,0.26c-0.12,0.11-0.21,0.25-0.26,0.4
					c-0.08,0.15-0.11,0.31-0.11,0.48c0.01,0.11,0.03,0.22,0.04,0.33c0.06,0.21,0.17,0.4,0.32,0.55c0.08,0.07,0.17,0.13,0.25,0.2
					C606.52,558.88,606.73,558.93,606.96,558.94L606.96,558.94z"/>
			</g>
		</g>
		<g>
			<g>
				<path class="st15" d="M613.39,562.22c0,0.02,0,0.04,0,0.06c0,0.01,0,0.02,0,0.03c0,0,0,0.01,0,0.01
					c-0.01,0.16,0.03,0.31,0.1,0.45c0.02,0.07,0.05,0.14,0.1,0.19c-0.04-0.15-0.08-0.31-0.12-0.46c0,0.01,0,0.02,0,0.03
					c0,0.12,0.02,0.24,0.08,0.34c0.04,0.11,0.1,0.21,0.18,0.29c0.06,0.05,0.12,0.09,0.18,0.14c0.14,0.08,0.29,0.12,0.45,0.12
					c0.01,0,0.02,0,0.03,0c-0.15-0.04-0.31-0.08-0.46-0.12c0.02,0.01,0.04,0.03,0.05,0.04c0.13,0.09,0.28,0.13,0.44,0.14
					c0.07,0.01,0.11,0.02,0.17,0.02c0.01,0,0.02,0,0.03,0c0.02,0,0.04,0,0.06,0c0.11-0.02,0.23-0.03,0.34-0.05
					c0.1-0.04,0.2-0.09,0.31-0.13c0.15-0.08,0.27-0.19,0.36-0.33c0.08-0.08,0.13-0.17,0.16-0.28c0.06-0.1,0.09-0.21,0.09-0.32
					c0.03-0.11,0.03-0.23,0-0.34c0-0.12-0.03-0.22-0.09-0.32c-0.05-0.16-0.14-0.3-0.26-0.41c-0.09-0.07-0.17-0.13-0.26-0.2
					c-0.1-0.04-0.2-0.09-0.31-0.13c-0.11-0.02-0.23-0.03-0.34-0.05c-0.11,0.02-0.23,0.03-0.34,0.05c-0.1,0.04-0.2,0.09-0.31,0.13
					c-0.15,0.08-0.27,0.19-0.36,0.33c-0.08,0.08-0.13,0.17-0.16,0.28C613.42,561.88,613.39,562.04,613.39,562.22L613.39,562.22z"/>
			</g>
		</g>
		<g>
			<g>
				<path class="st15" d="M604.69,565.9c1.24,0,1.24-1.92,0-1.92C603.46,563.98,603.45,565.9,604.69,565.9L604.69,565.9z"/>
			</g>
		</g>
		<g>
			<g>
				<path class="st15" d="M601.75,572.6c1.69,0,1.69-2.62,0-2.62C600.06,569.97,600.05,572.6,601.75,572.6L601.75,572.6z"/>
			</g>
		</g>
		<g>
			<g>
				<path class="st15" d="M610.14,569.6c1.63,0,1.63-2.53,0-2.53C608.51,567.07,608.5,569.6,610.14,569.6L610.14,569.6z"/>
			</g>
		</g>
		<g>
			<g>
				<path class="st15" d="M599.93,563.51c1.09,0,1.09-1.69,0-1.69C598.85,561.83,598.84,563.51,599.93,563.51L599.93,563.51z"/>
			</g>
		</g>
		<g>
			<g>
				<path class="st15" d="M614.67,568.89c1.3,0,1.3-2.02,0-2.02C613.37,566.88,613.37,568.89,614.67,568.89L614.67,568.89z"/>
			</g>
		</g>
		<g>
			<g>
				<path class="st15" d="M606.05,576.47c1.42,0,1.42-2.2,0-2.2C604.64,574.27,604.63,576.47,606.05,576.47L606.05,576.47z"/>
			</g>
		</g>
		<g>
			<g>
				<path class="st15" d="M599.02,579.32c1.15,0,1.15-1.78,0-1.78C597.88,577.54,597.88,579.32,599.02,579.32L599.02,579.32z"/>
			</g>
		</g>
	</g>
	<path class="st32" d="M521.01,655.58c0,0-2.02,16.22-1.75,33.64c0.27,17.43,1.55,22.65,7.57,32.36c5.22,8.42,18.89,19.3,18.89,19.3
		l26.49,0.1c0,0-19.4-24.09-23.78-32.99c-4.39-8.89,4.3-48.11,4.3-48.11s-5.12-4.18-13.51-5.89
		C530.84,652.3,521.01,655.58,521.01,655.58z"/>
	<path class="st31" d="M552.83,600.5c0,0-15.47,7.17-24.32,26.24c-6.28,13.52-11.01,51.54-11.01,51.54s7.31,0.38,16.79,2.63
		c10.27,2.44,14.88,4.41,14.88,4.41s7.35-29.88,8.24-44.83C558.29,625.55,557.88,601.26,552.83,600.5z"/>
	<g>
		<path class="st34" d="M636.22,628.77c0.92,7.75,3.37,15.14,5.14,22.71c1.75,7.53,3.12,15.68,1.2,23.31c-0.6,2.39-1.43,4.71-2,7.11
			c-0.29,1.18-0.51,2.38-0.69,3.58c-0.18,1.21-0.41,2.44-0.21,3.66c0.11,0.63,0.95,0.48,1.13,0c0.42-1.08,0.49-2.27,0.71-3.4
			c0.22-1.13,0.49-2.25,0.76-3.36c0.52-2.14,1.2-4.22,1.8-6.34c1.02-3.64,1.31-7.47,1.07-11.23c-0.51-8.02-2.88-15.8-4.88-23.54
			c-1.08-4.17-2.2-8.38-2.84-12.65C637.31,627.94,636.14,628.09,636.22,628.77L636.22,628.77z"/>
	</g>
	<g>
		<path d="M636.22,628.77c0.92,7.75,3.37,15.14,5.14,22.71c1.75,7.53,3.12,15.68,1.2,23.31c-0.6,2.39-1.43,4.71-2,7.11
			c-0.29,1.18-0.51,2.38-0.69,3.58c-0.18,1.21-0.41,2.44-0.21,3.66c0.11,0.63,0.95,0.48,1.13,0c0.42-1.08,0.49-2.27,0.71-3.4
			c0.22-1.13,0.49-2.25,0.76-3.36c0.52-2.14,1.2-4.22,1.8-6.34c1.02-3.64,1.31-7.47,1.07-11.23c-0.51-8.02-2.88-15.8-4.88-23.54
			c-1.08-4.17-2.2-8.38-2.84-12.65C637.31,627.94,636.14,628.09,636.22,628.77L636.22,628.77z"/>
	</g>
	<g>
		<path class="st16" d="M578.21,688.77c5.7-1.69,11.82-2.27,17.74-2.46c5.96-0.2,11.97-0.01,17.87,0.92
			c0.39,0.06,0.55-0.47,0.16-0.59c-5.73-1.87-12.07-2.07-18.03-1.8c-6.08,0.28-12.2,1.09-18.01,2.98
			C577.35,688.02,577.6,688.95,578.21,688.77L578.21,688.77z"/>
	</g>
	<g>
		<path class="st35" d="M556.6,628.61c-1.17,7.78-3.66,15.34-5.51,22.97c-1.81,7.5-3.23,15.4-1.5,23.06
			c0.53,2.36,1.37,4.64,1.97,6.98c0.3,1.17,0.58,2.36,0.83,3.54c0.27,1.31,0.34,2.72,0.83,3.97c0.18,0.48,1.03,0.63,1.13,0
			c0.35-2.06-0.28-4.48-0.72-6.49c-0.48-2.19-1.14-4.33-1.79-6.47c-1.11-3.64-1.38-7.42-1.23-11.21c0.31-8.06,2.62-15.88,4.66-23.64
			c1.09-4.15,2.02-8.29,2.53-12.55C557.87,628.1,556.7,627.93,556.6,628.61L556.6,628.61z"/>
	</g>
	<g>
		<path class="st36" d="M556.6,628.61c-1.17,7.78-3.66,15.34-5.51,22.97c-1.81,7.5-3.23,15.4-1.5,23.06
			c0.53,2.36,1.37,4.64,1.97,6.98c0.3,1.17,0.58,2.36,0.83,3.54c0.27,1.31,0.34,2.72,0.83,3.97c0.18,0.48,1.03,0.63,1.13,0
			c0.35-2.06-0.28-4.48-0.72-6.49c-0.48-2.19-1.14-4.33-1.79-6.47c-1.11-3.64-1.38-7.42-1.23-11.21c0.31-8.06,2.62-15.88,4.66-23.64
			c1.09-4.15,2.02-8.29,2.53-12.55C557.87,628.1,556.7,627.93,556.6,628.61L556.6,628.61z"/>
	</g>
</g>
</svg>
