<?xml version="1.0" encoding="utf-8"?>
<!-- Generator: Adobe Illustrator 25.0.0, SVG Export Plug-In . SVG Version: 6.00 Build 0)  -->
<svg version="1.1" id="Camada_1" xmlns="http://www.w3.org/2000/svg" xmlns:xlink="http://www.w3.org/1999/xlink" x="0px" y="0px"
	 viewBox="0 0 1280 1024" style="enable-background:new 0 0 1280 1024;" xml:space="preserve">
<style type="text/css">
	.st0{fill:#666666;}
</style>
<g>
	<path class="st0" d="M640.37,510.84c-0.65,0-1.17,0.53-1.17,1.17c0,0.65,0.53,1.17,1.17,1.17c0.65,0,1.17-0.53,1.17-1.17
		C641.54,511.36,641.02,510.84,640.37,510.84z"/>
	<path class="st0" d="M643.33,509.72c-0.06-0.15-0.15-0.29-0.26-0.4c-0.12-0.12-0.25-0.21-0.4-0.26c-0.13-0.05-0.33-0.11-0.69-0.13
		c-0.41-0.02-0.53-0.02-1.6-0.02c-1.07,0-1.19,0-1.6,0.02c-0.36,0.02-0.56,0.08-0.69,0.13c-0.15,0.06-0.29,0.15-0.4,0.26
		c-0.12,0.12-0.21,0.25-0.26,0.4c-0.05,0.13-0.11,0.33-0.13,0.69c-0.02,0.41-0.02,0.52-0.02,1.6c0,1.08,0,1.19,0.02,1.6
		c0.02,0.37,0.08,0.56,0.13,0.69c0.06,0.15,0.14,0.29,0.26,0.4c0.12,0.12,0.25,0.21,0.4,0.26c0.13,0.05,0.33,0.11,0.69,0.13
		c0.41,0.02,0.53,0.02,1.6,0.02c1.07,0,1.2,0,1.6-0.02c0.37-0.02,0.56-0.08,0.69-0.13c0.3-0.12,0.55-0.36,0.67-0.67
		c0.05-0.13,0.11-0.32,0.13-0.69c0.02-0.41,0.02-0.53,0.02-1.6c0-1.08,0-1.2-0.02-1.6C643.44,510.04,643.38,509.85,643.33,509.72z
		 M640.37,514.21c-1.22,0-2.2-0.99-2.2-2.2c0-1.22,0.99-2.2,2.2-2.2c1.21,0,2.2,0.99,2.2,2.2
		C642.57,513.23,641.59,514.21,640.37,514.21z M642.5,510.36c-0.26,0-0.48-0.21-0.48-0.48c0-0.26,0.21-0.48,0.48-0.48
		c0.26,0,0.48,0.21,0.48,0.48C642.98,510.15,642.76,510.36,642.5,510.36z"/>
	<path class="st0" d="M640.37,505.07c-3.83,0-6.94,3.11-6.94,6.94s3.11,6.94,6.94,6.94s6.94-3.11,6.94-6.94
		S644.2,505.07,640.37,505.07z M644.49,513.66c-0.02,0.4-0.08,0.71-0.2,1.02c-0.22,0.58-0.68,1.03-1.25,1.25
		c-0.3,0.12-0.61,0.18-1.02,0.2c-0.43,0.02-0.58,0.02-1.65,0.02c-1.08,0-1.22,0-1.65-0.02c-0.4-0.02-0.71-0.08-1.02-0.2
		c-0.29-0.11-0.54-0.27-0.76-0.49c-0.22-0.22-0.39-0.47-0.49-0.76c-0.12-0.3-0.18-0.62-0.2-1.02c-0.02-0.44-0.02-0.59-0.02-1.65
		c0-1.06,0-1.21,0.02-1.65c0.02-0.4,0.08-0.71,0.2-1.02c0.11-0.29,0.27-0.54,0.49-0.76c0.22-0.22,0.47-0.39,0.76-0.49
		c0.3-0.12,0.61-0.18,1.01-0.2c0.43-0.02,0.58-0.02,1.65-0.02c1.07,0,1.22,0,1.65,0.02c0.4,0.02,0.71,0.08,1.02,0.2
		c0.29,0.11,0.54,0.27,0.76,0.49c0.22,0.21,0.39,0.47,0.49,0.76c0.12,0.3,0.18,0.61,0.2,1.01c0.02,0.43,0.02,0.58,0.02,1.65
		C644.51,513.09,644.51,513.23,644.49,513.66z"/>
</g>
</svg>
