<?xml version="1.0" encoding="utf-8"?>
<!-- Generator: Adobe Illustrator 25.0.0, SVG Export Plug-In . SVG Version: 6.00 Build 0)  -->
<svg version="1.1" id="Camada_1" xmlns="http://www.w3.org/2000/svg" xmlns:xlink="http://www.w3.org/1999/xlink" x="0px" y="0px"
	 viewBox="0 0 1280 1024" style="enable-background:new 0 0 1280 1024;" xml:space="preserve">
<style type="text/css">
	.st0{fill:#666666;}
</style>
<g>
	<path class="st0" d="M640.37,505.07c-3.83,0-6.94,3.11-6.94,6.94c0,3.83,3.11,6.94,6.94,6.94c3.83,0,6.94-3.11,6.94-6.94
		C647.31,508.18,644.2,505.07,640.37,505.07L640.37,505.07z M643.54,510.48c0,0.07,0,0.14,0,0.21c0,2.11-1.6,4.53-4.53,4.53h0h0
		c-0.9,0-1.74-0.26-2.44-0.72c0.12,0.01,0.25,0.02,0.38,0.02c0.75,0,1.43-0.25,1.98-0.68c-0.7-0.01-1.29-0.47-1.49-1.11
		c0.1,0.02,0.2,0.03,0.3,0.03c0.15,0,0.29-0.02,0.42-0.06c-0.73-0.15-1.28-0.79-1.28-1.56c0-0.01,0-0.01,0-0.02
		c0.21,0.12,0.46,0.19,0.72,0.2c-0.43-0.29-0.71-0.77-0.71-1.33c0-0.29,0.08-0.57,0.22-0.8c0.79,0.96,1.96,1.6,3.28,1.67
		c-0.03-0.12-0.04-0.24-0.04-0.36c0-0.88,0.71-1.59,1.59-1.59c0.46,0,0.87,0.19,1.16,0.5c0.36-0.07,0.7-0.2,1.01-0.39
		c-0.12,0.37-0.37,0.68-0.7,0.88c0.32-0.04,0.63-0.12,0.92-0.25C644.12,509.98,643.85,510.26,643.54,510.48L643.54,510.48z
		 M643.54,510.48"/>
</g>
</svg>
